<svg width="30" height="31" viewBox="0 0 30 31" fill="none" xmlns="http://www.w3.org/2000/svg">
<g filter="url(#filter0_i_92_19)">
<rect x="30" y="0.0429688" width="30" height="30" rx="8" transform="rotate(90 30 0.0429688)" fill="white"/>
</g>
<rect x="29.5" y="0.542969" width="29" height="29" rx="7.5" transform="rotate(90 29.5 0.542969)" stroke="#E1E0FF"/>
<path d="M15.8824 20.9377L22.1324 14.6877C22.2489 14.5712 22.3414 14.4328 22.4045 14.2805C22.4675 14.1283 22.5 13.965 22.5 13.8002C22.5 13.4673 22.3678 13.1481 22.1324 12.9127C22.0158 12.7962 21.8775 12.7037 21.7252 12.6406C21.5729 12.5776 21.4097 12.5451 21.2449 12.5451C20.912 12.5451 20.5928 12.6773 20.3574 12.9127L14.9949 18.2877L9.63239 12.9127C9.51618 12.7956 9.37793 12.7026 9.22561 12.6391C9.07328 12.5756 8.9099 12.543 8.74489 12.543C8.57987 12.543 8.41649 12.5756 8.26416 12.6391C8.11184 12.7026 7.97359 12.7956 7.85739 12.9127C7.74023 13.0289 7.64723 13.1672 7.58377 13.3195C7.52031 13.4718 7.48764 13.6352 7.48764 13.8002C7.48764 13.9652 7.52031 14.1286 7.58377 14.2809C7.64723 14.4333 7.74023 14.5715 7.85739 14.6877L14.1074 20.9377C14.2236 21.0549 14.3618 21.1479 14.5142 21.2113C14.6665 21.2748 14.8299 21.3075 14.9949 21.3075C15.1599 21.3075 15.3233 21.2748 15.4756 21.2113C15.6279 21.1479 15.7662 21.0549 15.8824 20.9377Z" fill="#6865FF"/>
<defs>
<filter id="filter0_i_92_19" x="0" y="0.0429688" width="30" height="30" filterUnits="userSpaceOnUse" color-interpolation-filters="sRGB">
<feFlood flood-opacity="0" result="BackgroundImageFix"/>
<feBlend mode="normal" in="SourceGraphic" in2="BackgroundImageFix" result="shape"/>
<feColorMatrix in="SourceAlpha" type="matrix" values="0 0 0 0 0 0 0 0 0 0 0 0 0 0 0 0 0 0 127 0" result="hardAlpha"/>
<feOffset/>
<feGaussianBlur stdDeviation="1.75"/>
<feComposite in2="hardAlpha" operator="arithmetic" k2="-1" k3="1"/>
<feColorMatrix type="matrix" values="0 0 0 0 0.211078 0 0 0 0 0.195833 0 0 0 0 1 0 0 0 0.5 0"/>
<feBlend mode="normal" in2="shape" result="effect1_innerShadow_92_19"/>
</filter>
</defs>
</svg>
