<svg width="80" height="81" viewBox="0 0 80 81" fill="none" xmlns="http://www.w3.org/2000/svg">
<g clip-path="url(#clip0_89_2233)">
<path d="M80 0.0429688H0V80.043H80V0.0429688Z" fill="#176BFF"/>
<path d="M28.0894 30.4805C29.3859 30.4805 30.5841 30.5789 31.6838 30.8742C32.7806 31.0711 33.6834 31.4817 34.485 31.9739C35.2894 32.4689 35.8828 33.172 36.2878 34.0748C36.6816 34.9748 36.8953 36.0745 36.8953 37.2727C36.8953 38.6677 36.5972 39.8658 35.8941 40.7658C35.2894 41.6658 34.3022 42.4702 33.09 43.0636C34.7944 43.5586 36.0909 44.4586 36.8813 45.6567C37.6716 46.8548 38.1778 48.3483 38.1778 50.0527C38.1778 51.4477 37.8825 52.6458 37.3762 53.647C36.8712 54.6548 36.1134 55.5144 35.1769 56.1417C34.2769 56.7464 33.1772 57.2386 31.9791 57.5367C30.8054 57.8467 29.5984 58.0129 28.3847 58.0317L15 58.0514V30.4805H28.0894ZM27.2878 41.6686C28.3847 41.6686 29.2847 41.3733 29.9794 40.867C30.6713 40.3608 30.9778 39.4692 30.9778 38.3723C30.9778 37.7648 30.8794 37.1742 30.6825 36.7777C30.4694 36.3757 30.1602 36.0327 29.7825 35.7792C29.3745 35.5568 28.9384 35.3903 28.4859 35.2842C27.9909 35.1858 27.4847 35.1858 26.8913 35.1858H21.1031V41.6827C21.1031 41.6686 27.2878 41.6686 27.2878 41.6686ZM27.5831 53.4614C28.1878 53.4614 28.7812 53.363 29.2875 53.2645C29.7825 53.1661 30.2888 52.9664 30.6825 52.657C31.0763 52.3477 31.3856 52.0523 31.6838 51.5602C31.8806 51.0652 32.0775 50.4605 32.0775 49.7573C32.0775 48.3623 31.6838 47.3611 30.8794 46.658C30.0778 46.0533 28.9781 45.758 27.6816 45.758H21.1031V53.4473H27.5859L27.5831 53.4614ZM46.8713 53.363C47.6756 54.1645 48.8709 54.5611 50.4656 54.5611C51.5625 54.5611 52.5638 54.263 53.3681 53.7567C54.1697 53.152 54.6619 52.5586 54.8587 51.9567H59.7525C58.9481 54.3502 57.75 56.0545 56.1581 57.1542C54.5662 58.1527 52.6622 58.7461 50.3644 58.7461C48.895 58.7526 47.4378 58.4806 46.0697 57.9445C44.8384 57.4868 43.7398 56.7312 42.8719 55.7452C41.9461 54.8257 41.2587 53.6942 40.8694 52.4489C40.3772 51.1523 40.1663 49.7573 40.1663 48.1514C40.1663 46.658 40.3631 45.2489 40.8694 43.9523C41.3756 42.6586 42.0675 41.5561 42.9703 40.5577C43.8703 39.6577 44.97 38.8533 46.1681 38.3583C47.5041 37.8264 48.9292 37.5543 50.3672 37.5567C52.0716 37.5567 53.565 37.852 54.8616 38.5552C56.1553 39.2583 57.1594 40.0514 57.9609 41.2495C58.7625 42.3464 59.3559 43.643 59.7638 45.0408C59.9606 46.4358 60.0591 47.842 59.9606 49.4367H45.4763C45.4763 51.068 46.0669 52.5586 46.8713 53.363ZM53.1712 42.8667C52.4681 42.1636 51.3656 41.767 50.0691 41.767C49.1691 41.767 48.4772 41.9639 47.8725 42.262C47.2678 42.5573 46.8713 42.9652 46.4775 43.3589C46.1099 43.7449 45.8652 44.2314 45.7744 44.7567C45.6731 45.2489 45.5775 45.6567 45.5775 46.0505H54.5662C54.3694 44.5711 53.8659 43.5698 53.1712 42.8667ZM44.3766 32.3817H55.5647V35.0733H44.3766V32.3817Z" fill="white"/>
</g>
<defs>
<clipPath id="clip0_89_2233">
<rect y="0.0429688" width="80" height="80" rx="15" fill="white"/>
</clipPath>
</defs>
</svg>
