<svg width="80" height="81" viewBox="0 0 80 81" fill="none" xmlns="http://www.w3.org/2000/svg">
<g clip-path="url(#clip0_89_2243)">
<path d="M80 0.0429688H0V80.043H80V0.0429688Z" fill="#FF458D"/>
<path d="M16.4082 39.7679C16.4082 35.4401 17.4743 31.4464 19.6063 27.7869C21.7384 24.1273 24.6343 21.2315 28.2938 19.0995C31.9533 16.9673 35.9469 15.9014 40.2747 15.9014C44.6026 15.9014 48.5962 16.9673 52.2557 19.0995C55.9153 21.2315 58.8111 24.1273 60.9432 27.7869C63.0753 31.4464 64.1413 35.4401 64.1413 39.7679C64.1413 44.0957 63.0753 48.0893 60.9432 51.7489C58.8111 55.4085 55.9153 58.3042 52.2557 60.4363C48.5962 62.5684 44.6026 63.6344 40.2747 63.6344C35.9469 63.6344 31.9533 62.5684 28.2938 60.4363C24.6343 58.3042 21.7384 55.4085 19.6063 51.7489C17.4743 48.0893 16.4082 44.0957 16.4082 39.7679ZM20.3701 39.7679C20.3701 44.7321 22.0407 49.1077 25.382 52.8945C26.9095 49.9032 29.328 47.0552 32.6375 44.3503C35.9469 41.6454 39.1769 39.943 42.3273 39.2428C41.8499 38.129 41.3885 37.1267 40.943 36.2357C35.4697 37.9859 29.5507 38.861 23.1863 38.861C21.9452 38.861 21.0224 38.8451 20.4178 38.8133C20.4178 38.9405 20.4099 39.0997 20.3939 39.2905C20.378 39.4815 20.3701 39.6406 20.3701 39.7679ZM20.9906 34.8514C21.6907 34.915 22.7249 34.9468 24.0932 34.9468C29.4075 34.9468 34.4513 34.2309 39.2246 32.7989C36.8061 28.5029 34.149 24.9229 31.2532 22.0589C28.7393 23.3319 26.5834 25.098 24.7853 27.3573C22.9874 29.6167 21.7226 32.1147 20.9906 34.8514ZM28.1028 55.4721C31.6987 58.2725 35.7561 59.6726 40.2747 59.6726C42.6296 59.6726 44.9685 59.2271 47.2915 58.3361C46.6551 52.8945 45.414 47.628 43.5683 42.5364C40.6407 43.1728 37.6892 44.7799 34.7138 47.3575C31.7385 49.9351 29.5348 52.6399 28.1028 55.4721ZM35.4059 20.5315C38.2063 23.4273 40.7998 27.0391 43.1865 31.3669C47.5143 29.553 50.776 27.2459 52.9718 24.4456C49.2804 21.3907 45.048 19.8632 40.2747 19.8632C38.6518 19.8632 37.0289 20.0859 35.4059 20.5315ZM44.9049 34.756C45.3822 35.7742 45.9232 37.063 46.5277 38.6223C48.8826 38.3995 51.4443 38.2882 54.2128 38.2882C56.1858 38.2882 58.1429 38.3359 60.084 38.4313C59.8294 34.1035 58.2701 30.2531 55.4061 26.88C53.3377 29.9667 49.8373 32.592 44.9049 34.756ZM47.7211 41.9636C49.344 46.6733 50.4419 51.5102 51.0147 56.4745C53.5287 54.8516 55.5812 52.7672 57.1722 50.2215C58.7634 47.6757 59.718 44.9231 60.0362 41.9636C57.7132 41.8045 55.5971 41.725 53.6877 41.725C51.9375 41.725 49.9486 41.8045 47.7211 41.9636Z" fill="white"/>
</g>
<defs>
<clipPath id="clip0_89_2243">
<rect y="0.0429688" width="80" height="80" rx="15" fill="white"/>
</clipPath>
</defs>
</svg>
