<svg width="80" height="81" viewBox="0 0 80 81" fill="none" xmlns="http://www.w3.org/2000/svg">
<g clip-path="url(#clip0_89_2214)">
<path d="M80 0.0429688H0V80.043H80V0.0429688Z" fill="url(#paint0_radial_89_2214)"/>
<path d="M32.6684 40.0429C32.6684 35.9928 35.9508 32.7087 40.0008 32.7087C44.051 32.7087 47.3351 35.9928 47.3351 40.0429C47.3351 44.093 44.051 47.3771 40.0008 47.3771C35.9508 47.3771 32.6684 44.093 32.6684 40.0429ZM28.7037 40.0429C28.7037 46.2824 33.7614 51.3401 40.0008 51.3401C46.2404 51.3401 51.2981 46.2824 51.2981 40.0429C51.2981 33.8034 46.2404 28.7457 40.0008 28.7457C33.7614 28.7457 28.7037 33.8031 28.7037 40.0429ZM49.1054 28.2978C49.1051 28.82 49.2598 29.3305 49.5497 29.7647C49.8396 30.199 50.2519 30.5375 50.7342 30.7375C51.2165 30.9376 51.7473 30.99 52.2595 30.8884C52.7717 30.7867 53.2422 30.5354 53.6116 30.1664C53.981 29.7973 54.2326 29.327 54.3347 28.8149C54.4367 28.3028 54.3847 27.772 54.185 27.2895C53.9854 26.807 53.6472 26.3946 53.2131 26.1042C52.7791 25.8139 52.2687 25.6589 51.7465 25.6587H51.7455C51.0456 25.659 50.3744 25.9371 49.8793 26.432C49.3844 26.9268 49.106 27.5978 49.1054 28.2978ZM31.1126 57.9513C28.9675 57.8536 27.8017 57.4963 27.0269 57.1945C25.9997 56.7946 25.2668 56.3182 24.4963 55.5487C23.7256 54.7792 23.2488 54.0471 22.8505 53.0199C22.5485 52.2455 22.1912 51.0793 22.0937 48.9342C21.9871 46.6152 21.9658 45.9185 21.9658 40.0432C21.9658 34.1679 21.9889 33.4732 22.0937 31.1522C22.1914 29.0073 22.5513 27.8433 22.8505 27.0666C23.2504 26.0395 23.7268 25.3066 24.4963 24.536C25.2658 23.7654 25.9979 23.2884 27.0269 22.8903C27.8013 22.5882 28.9675 22.231 31.1126 22.1335C33.4316 22.0268 34.1282 22.0055 40.0008 22.0055C45.8735 22.0055 46.5709 22.0283 48.8919 22.1339C51.0369 22.2315 52.2008 22.5915 52.9775 22.8907C54.0047 23.2888 54.7376 23.7668 55.5081 24.5363C56.2787 25.3058 56.754 26.0397 57.1538 27.0669C57.4558 27.8414 57.8132 29.0076 57.9107 31.1526C58.0173 33.4736 58.0386 34.1683 58.0386 40.0436C58.0386 45.9189 58.0173 46.6136 57.9107 48.9346C57.813 51.0795 57.4539 52.2455 57.1538 53.0202C56.754 54.0475 56.2776 54.7803 55.5081 55.5491C54.7386 56.3179 54.0047 56.7948 52.9775 57.1947C52.2031 57.4968 51.0369 57.8541 48.8919 57.9516C46.5728 58.0583 45.8761 58.0795 40.0008 58.0795C34.1256 58.0795 33.4309 58.0579 31.1126 57.9513ZM30.9304 18.1753C28.5882 18.2819 26.9878 18.6533 25.5901 19.1972C24.1435 19.7588 22.9173 20.5123 21.6928 21.7348C20.4683 22.9574 19.7168 24.1837 19.1551 25.6321C18.6113 27.0307 18.2399 28.6302 18.1333 30.9723C18.0248 33.3182 18 34.0682 18 40.0429C18 46.0176 18.0248 46.7676 18.1333 49.1134C18.2399 51.4557 18.6113 53.0551 19.1551 54.4537C19.7168 55.9003 20.4685 57.129 21.6928 58.351C22.9171 59.573 24.1417 60.3254 25.5901 60.8887C26.9904 61.4325 28.5882 61.8039 30.9304 61.9105C33.2775 62.0171 34.0262 62.0438 40.0008 62.0438C45.9756 62.0438 46.7256 62.0189 49.0714 61.9105C51.4137 61.8039 53.0131 61.4325 54.4117 60.8887C55.8583 60.3254 57.0845 59.5735 58.309 58.351C59.5335 57.1284 60.2834 55.9003 60.8466 54.4537C61.3905 53.0551 61.7636 51.4555 61.8685 49.1134C61.9752 46.7659 62 46.0176 62 40.0429C62 34.0682 61.9752 33.3182 61.8685 30.9723C61.7619 28.63 61.3905 27.0299 60.8466 25.6321C60.2834 24.1855 59.5315 22.9593 58.309 21.7348C57.0864 20.5103 55.8583 19.7588 54.4134 19.1972C53.0131 18.6533 51.4136 18.2801 49.0731 18.1753C46.727 18.0681 45.9774 18.042 40.0035 18.042C34.0296 18.042 33.2775 18.0668 30.9304 18.1753Z" fill="white"/>
</g>
<defs>
<radialGradient id="paint0_radial_89_2214" cx="0" cy="0" r="1" gradientUnits="userSpaceOnUse" gradientTransform="translate(5.17752 78.2904) scale(101.57)">
<stop offset="0.09" stop-color="#FA8F21"/>
<stop offset="0.78" stop-color="#D82D7E"/>
</radialGradient>
<clipPath id="clip0_89_2214">
<rect y="0.0429688" width="80" height="80" rx="15" fill="white"/>
</clipPath>
</defs>
</svg>
