<svg width="80" height="81" viewBox="0 0 80 81" fill="none" xmlns="http://www.w3.org/2000/svg">
<g clip-path="url(#clip0_89_2223)">
<path d="M80 0.0429688H0V80.043H80V0.0429688Z" fill="#2477B5"/>
<path d="M18.3125 24.1867C18.3125 22.7957 18.801 21.6482 19.7779 20.7442C20.7548 19.8401 22.0248 19.3881 23.5879 19.3881C25.123 19.3881 26.3651 19.8331 27.3141 20.7233C28.291 21.6413 28.7795 22.8375 28.7795 24.3118C28.7795 25.6471 28.305 26.7597 27.356 27.65C26.379 28.5679 25.0951 29.0269 23.5041 29.0269H23.4622C21.9271 29.0269 20.685 28.5679 19.736 27.65C18.787 26.732 18.3125 25.5775 18.3125 24.1867ZM18.8568 60.6976V32.8241H28.1515V60.6976H18.8568ZM33.3012 60.6976H42.5958V45.1335C42.5958 44.1598 42.7075 43.4088 42.9308 42.8802C43.3215 41.9344 43.9147 41.1346 44.7101 40.481C45.5056 39.8272 46.5035 39.5003 47.7037 39.5003C50.8299 39.5003 52.3929 41.6006 52.3929 45.8011V60.6976H61.6876V44.7163C61.6876 40.5992 60.7106 37.4766 58.7568 35.3485C56.8029 33.2205 54.2211 32.1564 51.0112 32.1564C47.4107 32.1564 44.6055 33.7003 42.5958 36.7882V36.8715H42.554L42.5958 36.7882V32.8241H33.3012C33.357 33.7143 33.3849 36.4821 33.3849 41.1277C33.3849 45.7733 33.357 52.2966 33.3012 60.6976Z" fill="white"/>
</g>
<defs>
<clipPath id="clip0_89_2223">
<rect y="0.0429688" width="80" height="80" rx="15" fill="white"/>
</clipPath>
</defs>
</svg>
