<svg width="45" height="45" viewBox="0 0 45 45" fill="none" xmlns="http://www.w3.org/2000/svg">
<rect width="45" height="45" rx="11.25" fill="#EAE9FF"/>
<path opacity="0.4" d="M35 27.4251C35 30.9126 32.2 33.7376 28.7125 33.7501H28.7H16.3125C12.8375 33.7501 10 30.9376 10 27.4501V27.4376C10 27.4376 10.0075 21.9051 10.0175 19.1226C10.0188 18.6001 10.6188 18.3076 11.0275 18.6326C13.9975 20.9888 19.3088 25.2851 19.375 25.3413C20.2625 26.0526 21.3875 26.4538 22.5375 26.4538C23.6875 26.4538 24.8125 26.0526 25.7 25.3276C25.7663 25.2838 30.9588 21.1163 33.9738 18.7213C34.3838 18.3951 34.9863 18.6876 34.9875 19.2088C35 21.9701 35 27.4251 35 27.4251Z" fill="#302CFF"/>
<path d="M34.3451 14.5919C33.2626 12.5519 31.1326 11.2494 28.7876 11.2494H16.3126C13.9676 11.2494 11.8376 12.5519 10.7551 14.5919C10.5126 15.0481 10.6276 15.6169 11.0313 15.9394L20.3126 23.3631C20.9626 23.8881 21.7501 24.1494 22.5376 24.1494C22.5426 24.1494 22.5463 24.1494 22.5501 24.1494C22.5538 24.1494 22.5588 24.1494 22.5626 24.1494C23.3501 24.1494 24.1376 23.8881 24.7876 23.3631L34.0688 15.9394C34.4726 15.6169 34.5876 15.0481 34.3451 14.5919Z" fill="#302CFF"/>
</svg>
