<svg width="60" height="60" viewBox="0 0 60 60" fill="none" xmlns="http://www.w3.org/2000/svg">
<rect width="60" height="60" rx="10.8" fill="#EAE9FF"/>
<rect x="10.2002" y="8.39999" width="39.6" height="43.2" rx="4.8" fill="#B6B4FF"/>
<circle cx="15.0002" cy="13.2" r="1.8" fill="#3632FF"/>
<circle cx="20.3996" cy="13.2" r="1.8" fill="#3632FF"/>
<circle cx="25.8" cy="13.2" r="1.8" fill="#3632FF"/>
<path fill-rule="evenodd" clip-rule="evenodd" d="M31.7417 28.9505C31.3795 28.8 30.9195 28.8 30.0002 28.8C29.081 28.8 28.6219 28.8 28.2587 28.9505C27.7766 29.1507 27.3928 29.5363 27.1917 30.0226C27.0997 30.2434 27.0645 30.5018 27.0498 30.877C27.0433 31.1489 26.9683 31.4145 26.8319 31.6489C26.6956 31.8833 26.5024 32.0787 26.2706 32.2165C26.0344 32.3492 25.7689 32.4196 25.4987 32.421C25.2285 32.4223 24.9623 32.3547 24.7248 32.2244C24.394 32.0482 24.1541 31.9512 23.9172 31.9195C23.399 31.8507 22.8748 31.9915 22.4586 32.3115C22.1473 32.5511 21.9173 32.9511 21.4582 33.75C20.9981 34.5489 20.769 34.9479 20.7171 35.3389C20.6486 35.8597 20.7896 36.3864 21.1087 36.8031C21.2536 36.9932 21.4582 37.1526 21.7744 37.3526C22.2413 37.6466 22.5409 38.1476 22.5409 38.7C22.5409 39.2524 22.2413 39.7533 21.7754 40.0464C21.4582 40.2474 21.2536 40.4067 21.1077 40.5968C20.9502 40.8027 20.8346 41.0381 20.7675 41.2894C20.7005 41.5407 20.6834 41.803 20.7171 42.061C20.769 42.4511 20.9981 42.8511 21.4582 43.65C21.9183 44.4489 22.1473 44.8479 22.4586 45.0885C22.8737 45.4082 23.3984 45.5488 23.9172 45.4805C24.1541 45.4488 24.394 45.3518 24.7248 45.1756C24.9625 45.0451 25.2288 44.9774 25.4992 44.9787C25.7696 44.9801 26.0353 45.0506 26.2715 45.1835C26.7473 45.4607 27.0292 45.9705 27.0498 46.523C27.0645 46.8992 27.0997 47.1566 27.1917 47.3773C27.3914 47.8624 27.7752 48.2485 28.2587 48.4495C28.621 48.6 29.081 48.6 30.0002 48.6C30.9195 48.6 31.3795 48.6 31.7417 48.4495C32.2239 48.2493 32.6077 47.8637 32.8088 47.3773C32.9008 47.1566 32.936 46.8992 32.9507 46.523C32.9703 45.9705 33.2532 45.4597 33.7299 45.1835C33.9661 45.0507 34.2316 44.9804 34.5018 44.979C34.772 44.9776 35.0382 45.0452 35.2757 45.1756C35.6065 45.3518 35.8464 45.4488 36.0833 45.4805C36.6021 45.5498 37.1268 45.4082 37.5419 45.0885C37.8531 44.8489 38.0832 44.4489 38.5423 43.65C39.0024 42.8511 39.2315 42.4521 39.2834 42.061C39.317 41.8029 39.2997 41.5406 39.2325 41.2893C39.1653 41.038 39.0495 40.8026 38.8918 40.5968C38.7469 40.4067 38.5423 40.2474 38.2261 40.0474C37.7592 39.7533 37.4596 39.2524 37.4596 38.7C37.4596 38.1476 37.7592 37.6466 38.2251 37.3536C38.5423 37.1526 38.7469 36.9932 38.8928 36.8031C39.0503 36.5973 39.1659 36.3619 39.233 36.1106C39.3 35.8593 39.3171 35.597 39.2834 35.3389C39.2315 34.9489 39.0024 34.5489 38.5423 33.75C38.0822 32.9511 37.8531 32.5521 37.5419 32.3115C37.1257 31.9915 36.6015 31.8507 36.0833 31.9195C35.8464 31.9512 35.6065 32.0482 35.2757 32.2244C35.038 32.3549 34.7717 32.4226 34.5013 32.4212C34.2309 32.4198 33.9652 32.3494 33.729 32.2165C33.4973 32.0785 33.3043 31.8831 33.1682 31.6488C33.032 31.4144 32.9571 31.1488 32.9507 30.877C32.936 30.5008 32.9008 30.2434 32.8088 30.0226C32.7093 29.7818 32.5638 29.5632 32.3807 29.3792C32.1977 29.1952 31.9805 29.0495 31.7417 28.9505ZM30.0002 41.67C31.635 41.67 32.9595 40.3404 32.9595 38.7C32.9595 37.0596 31.6341 35.73 30.0002 35.73C28.3655 35.73 27.041 37.0596 27.041 38.7C27.041 40.3404 28.3664 41.67 30.0002 41.67Z" fill="#3632FF"/>
<path fill-rule="evenodd" clip-rule="evenodd" d="M36.8143 23.5492C35.6392 22.4888 34.1802 21.7204 32.5788 21.3185C30.9774 20.9165 29.288 20.8946 27.6745 21.255C26.061 21.6154 24.5782 22.3458 23.3698 23.3754C22.1614 24.4049 21.2686 25.6987 20.7778 27.1311C19.3499 27.589 18.147 28.487 17.3813 29.6666C16.6157 30.8463 16.3364 32.2319 16.5927 33.5792C16.849 34.9264 17.6244 36.1488 18.7823 37.0308C19.9402 37.9127 21.4061 38.3976 22.9216 38.4H38.3537C39.6073 38.4005 40.8179 37.9881 41.7581 37.2403C42.6983 36.4925 43.3035 35.4607 43.4598 34.3389C43.6162 33.217 43.313 32.0823 42.6072 31.1478C41.9014 30.2134 40.8415 29.5436 39.6268 29.2642C39.5101 27.11 38.5074 25.0723 36.8143 23.5492Z" fill="white"/>
</svg>
