<svg width="46" height="45" viewBox="0 0 46 45" fill="none" xmlns="http://www.w3.org/2000/svg">
<rect x="0.5" width="45" height="45" rx="11.25" fill="#EAE9FF"/>
<g opacity="0.4">
<path d="M26.0228 14.3624C25.4278 14.2525 24.8813 14.6322 24.768 15.2131C24.6547 15.7939 25.0356 16.361 25.6145 16.4747C27.3573 16.8145 28.703 18.1636 29.0441 19.9124C29.1412 20.4158 29.5844 20.783 30.0948 20.783C30.1633 20.783 30.2318 20.7768 30.3015 20.7643C30.8803 20.6481 31.2613 20.0822 31.148 19.5001C30.6388 16.8882 28.6284 14.8708 26.0228 14.3624Z" fill="#302CFF"/>
<path d="M25.9448 10.0099C25.666 9.96994 25.3859 10.0524 25.163 10.2298C24.934 10.4096 24.7908 10.6695 24.7597 10.9605C24.6937 11.5489 25.1182 12.081 25.7058 12.1472C29.7579 12.5994 32.9074 15.756 33.363 19.8207C33.424 20.3653 33.8809 20.7763 34.4262 20.7763C34.4672 20.7763 34.5071 20.7738 34.5482 20.7688C34.8332 20.7375 35.0872 20.5964 35.2665 20.3715C35.4445 20.1467 35.5254 19.8669 35.493 19.5808C34.9254 14.5093 31.0003 10.5733 25.9448 10.0099Z" fill="#302CFF"/>
</g>
<path fill-rule="evenodd" clip-rule="evenodd" d="M21.7897 23.7155C26.776 28.7005 27.9072 22.9334 31.0821 26.106C34.1428 29.1659 35.902 29.779 32.024 33.6559C31.5383 34.0463 28.452 38.7428 17.6058 27.8996C6.75815 17.055 11.452 13.9656 11.8425 13.4799C15.7298 9.59231 16.3323 11.3617 19.3931 14.4217C22.568 17.5956 16.8033 18.7305 21.7897 23.7155Z" fill="#302CFF"/>
</svg>
