<svg width="80" height="81" viewBox="0 0 80 81" fill="none" xmlns="http://www.w3.org/2000/svg">
<g clip-path="url(#clip0_89_2261)">
<path d="M80 0.0429688H0V80.043H80V0.0429688Z" fill="#28A8E9"/>
<path d="M20.7569 37.4729C32.7349 32.2543 40.7221 28.8138 44.7185 27.1516C56.1291 22.4056 58.5001 21.5812 60.0455 21.5536C60.3853 21.548 61.1453 21.6322 61.6376 22.0316C62.0533 22.3689 62.1676 22.8246 62.2224 23.1443C62.2771 23.4641 62.3452 24.1926 62.2911 24.7618C61.6728 31.2588 58.9972 47.0252 57.6361 54.3019C57.0601 57.381 55.926 58.4134 54.8281 58.5145C52.442 58.734 50.6301 56.9375 48.3192 55.4227C44.7029 53.0521 42.6599 51.5765 39.1497 49.2633C35.093 46.59 37.7228 45.1208 40.0347 42.7195C40.6397 42.0911 51.1527 32.5288 51.3562 31.6613C51.3816 31.5528 51.4052 31.1484 51.165 30.9349C50.9247 30.7213 50.5702 30.7944 50.3143 30.8524C49.9516 30.9347 44.1745 34.7531 32.9832 42.3077C31.3434 43.4336 29.8581 43.9823 28.5274 43.9535C27.0603 43.9218 24.2382 43.1241 22.1404 42.4421C19.5673 41.6057 17.5222 41.1635 17.7003 39.743C17.7931 39.003 18.8119 38.2464 20.7569 37.4729Z" fill="white"/>
</g>
<defs>
<clipPath id="clip0_89_2261">
<rect y="0.0429688" width="80" height="80" rx="15" fill="white"/>
</clipPath>
</defs>
</svg>
