<svg width="80" height="81" viewBox="0 0 80 81" fill="none" xmlns="http://www.w3.org/2000/svg">
<g clip-path="url(#clip0_89_2205)">
<path d="M80 0.0429688H0V80.043H80V0.0429688Z" fill="#1DA1F2"/>
<path d="M48.1729 20.2556V20.2468H50.4513L51.2837 20.4138C51.8388 20.5222 52.3427 20.6642 52.7954 20.8401C53.2482 21.0158 53.6863 21.2208 54.1098 21.4552C54.5333 21.6896 54.9175 21.9283 55.2622 22.1714C55.6039 22.4117 55.9107 22.6666 56.1823 22.936C56.451 23.2085 56.8702 23.2788 57.4398 23.147C58.0093 23.0152 58.6228 22.832 59.28 22.5977C59.9372 22.3633 60.5872 22.0997 61.2297 21.8067C61.8724 21.5137 62.2638 21.3278 62.404 21.2487C62.5413 21.1666 62.6143 21.1228 62.6231 21.1168L62.6318 21.1037L62.6757 21.0816L62.7194 21.0597L62.7633 21.0378L62.807 21.0158L62.8158 21.0026L62.829 20.9938L62.8421 20.985L62.8509 20.9718L62.8947 20.9586L62.9385 20.9499L62.9298 21.0158L62.9166 21.0816L62.8947 21.1476L62.8728 21.2135L62.8509 21.2575L62.829 21.3014L62.807 21.3673C62.7925 21.4112 62.7779 21.4699 62.7633 21.5431C62.7487 21.6163 62.6099 21.9092 62.347 22.422C62.0841 22.9346 61.7556 23.4546 61.3612 23.9819C60.9669 24.5092 60.6134 24.9076 60.3009 25.1772C59.9854 25.4496 59.7766 25.64 59.6743 25.7484C59.5721 25.8597 59.448 25.9622 59.3019 26.056L59.0828 26.201L59.0389 26.223L58.9952 26.2449L58.9864 26.2581L58.9733 26.267L58.9602 26.2757L58.9513 26.2889L58.9076 26.3109L58.8637 26.3328L58.855 26.346L58.8419 26.3549L58.8287 26.3636L58.8199 26.3768L58.8112 26.39L58.798 26.3987L58.7848 26.4076L58.7761 26.4208H58.9952L60.222 26.1571C61.0399 25.9813 61.8213 25.7689 62.5661 25.52L63.7491 25.1245L63.8806 25.0805L63.9462 25.0585L63.9901 25.0366L64.0339 25.0145L64.0777 24.9926L64.1215 24.9706L64.2091 24.9574L64.2967 24.9487V25.0366L64.2749 25.0453L64.253 25.0585L64.2442 25.0717L64.231 25.0805L64.218 25.0893L64.2091 25.1024L64.2005 25.1156L64.1873 25.1245L64.1741 25.1332L64.1653 25.1464L64.1566 25.1596L64.1434 25.1683L64.1215 25.2123L64.0997 25.2562L64.0865 25.2651C64.0806 25.2738 63.8951 25.5228 63.5301 26.0121C63.1649 26.5042 62.9677 26.7532 62.9385 26.7591C62.9094 26.7679 62.8684 26.8118 62.8158 26.891C62.7662 26.9729 62.4566 27.2996 61.8869 27.8708C61.3173 28.4421 60.7595 28.9504 60.2133 29.3956C59.6642 29.8439 59.3866 30.3946 59.3808 31.048C59.372 31.6983 59.3384 32.4336 59.28 33.2539C59.2215 34.0741 59.1121 34.9602 58.9513 35.9124C58.7908 36.8645 58.5425 37.9411 58.2065 39.1422C57.8707 40.3433 57.4616 41.5151 56.9797 42.6576C56.4978 43.8001 55.9939 44.8255 55.4681 45.7336C54.9423 46.6417 54.4603 47.4108 54.0222 48.0406C53.5841 48.6704 53.1386 49.2637 52.6858 49.8203C52.2331 50.3769 51.6606 51.0038 50.9684 51.701C50.2731 52.3953 49.8934 52.7761 49.8292 52.8435C49.762 52.908 49.4757 53.1482 48.9703 53.5642C48.4679 53.9831 47.9275 54.402 47.3492 54.8209C46.7737 55.2369 46.2451 55.5841 45.7631 55.8624C45.2811 56.1407 44.6998 56.4585 44.0193 56.816C43.3416 57.1763 42.6084 57.5103 41.8197 57.8178C41.031 58.1254 40.1986 58.4111 39.3222 58.6748C38.446 58.9384 37.5989 59.1435 36.7811 59.2899C35.9632 59.4364 35.0357 59.5609 33.9988 59.6635L32.4434 59.8173V59.8392H29.5954V59.8173L29.2229 59.7952C28.9747 59.7807 28.7702 59.766 28.6096 59.7513C28.4489 59.7367 27.8428 59.6561 26.7912 59.5097C25.7397 59.3632 24.9145 59.2167 24.3157 59.0703C23.7169 58.9237 22.826 58.6454 21.643 58.2353C20.4599 57.8252 19.4479 57.4107 18.6066 56.9918C17.7683 56.5758 17.2425 56.312 17.0293 56.2008C16.819 56.0924 16.5824 55.9576 16.3194 55.7965L15.9252 55.5548L15.9164 55.5416L15.9032 55.5328L15.8901 55.524L15.8813 55.5108L15.8375 55.4889L15.7937 55.4669L15.7849 55.4537L15.7717 55.4449L15.7587 55.4362L15.7499 55.423L15.7412 55.4098L15.728 55.401H15.7061V55.3131L15.7499 55.3219L15.7937 55.3351L15.9909 55.357C16.1223 55.3717 16.4802 55.3937 17.0644 55.423C17.6485 55.4523 18.2693 55.4523 18.9265 55.423C19.5837 55.3937 20.2555 55.3278 20.9419 55.2253C21.6284 55.1227 22.4389 54.947 23.3736 54.6979C24.3084 54.4489 25.1671 54.153 25.95 53.8103C26.73 53.4646 27.2849 53.2068 27.6149 53.0368C27.9421 52.8699 28.4416 52.5594 29.1134 52.1053L30.1211 51.4241L30.13 51.411L30.143 51.4022L30.1562 51.3935L30.165 51.3803L30.1737 51.367L30.1869 51.3583L30.2001 51.3495L30.2088 51.3363L30.2526 51.3232L30.2965 51.3143L30.3052 51.2704L30.3183 51.2264L30.3315 51.2176L30.3402 51.2045L29.9897 51.1825C29.756 51.1679 29.5297 51.1532 29.3106 51.1386C29.0915 51.1239 28.7483 51.058 28.2809 50.9408C27.8136 50.8236 27.3097 50.6479 26.7693 50.4135C26.229 50.1792 25.7031 49.9008 25.192 49.5786C24.6808 49.2563 24.3113 48.9883 24.0835 48.7744C23.8585 48.5634 23.5665 48.2647 23.2071 47.878C22.8508 47.4884 22.5412 47.0885 22.2783 46.6784C22.0154 46.2683 21.7642 45.7951 21.5247 45.259L21.161 44.4592L21.1391 44.3934L21.1172 44.3274L21.1041 44.2834L21.0953 44.2396L21.161 44.2483L21.2267 44.2615L21.7087 44.3274C22.03 44.3713 22.5339 44.386 23.2203 44.3713C23.9067 44.3568 24.3814 44.3274 24.6443 44.2834C24.9072 44.2396 25.0678 44.2102 25.1263 44.1956L25.2139 44.1736L25.3235 44.1517L25.4329 44.1296L25.4418 44.1165L25.4549 44.1077L25.468 44.099L25.4768 44.0857L25.3892 44.0638L25.3015 44.0418L25.2139 44.0198L25.1263 43.9979L25.0387 43.9759C24.9802 43.9613 24.878 43.9319 24.7319 43.888C24.5859 43.8441 24.1915 43.6829 23.5489 43.4047C22.9063 43.1264 22.3952 42.8553 22.0154 42.5917C21.6347 42.3273 21.2717 42.0381 20.9288 41.726C20.587 41.4096 20.2117 41.0024 19.8027 40.5044C19.3939 40.0064 19.0287 39.4278 18.7074 38.7687C18.3861 38.1095 18.1451 37.4797 17.9845 36.8791C17.8244 36.2821 17.7189 35.6717 17.669 35.0555L17.5901 34.1327L17.6339 34.1415L17.6777 34.1547L17.7216 34.1766L17.7653 34.1986L17.8092 34.2206L17.853 34.2426L18.5321 34.5502C18.9849 34.7552 19.5472 34.931 20.219 35.0775C20.8908 35.224 21.2925 35.3045 21.4239 35.3191L21.6211 35.3411H22.0154L22.0067 35.328L21.9935 35.3191L21.9803 35.3104L21.9716 35.2972L21.9629 35.284L21.9497 35.2752L21.9365 35.2664L21.9278 35.2532L21.8839 35.2313L21.8402 35.2093L21.8314 35.1961L21.8182 35.1873L21.8051 35.1785L21.7963 35.1653L21.7525 35.1434L21.7087 35.1214L21.6999 35.1082C21.6912 35.1024 21.5656 35.0086 21.3231 34.827C21.0836 34.6424 20.8324 34.4037 20.5695 34.1107C20.3066 33.8177 20.0437 33.5102 19.7809 33.1879C19.5174 32.865 19.2829 32.5194 19.0798 32.1552C18.8754 31.7891 18.6592 31.3232 18.4313 30.7579C18.2065 30.1954 18.0356 29.6286 17.9187 29.0573C17.8019 28.4861 17.7362 27.9221 17.7216 27.3655C17.707 26.8089 17.7216 26.3328 17.7653 25.9374C17.8092 25.5419 17.8968 25.0951 18.0282 24.5971C18.1597 24.0992 18.3495 23.5718 18.5978 23.0152L18.9702 22.1803L18.9922 22.1143L19.0141 22.0484L19.0273 22.0397L19.036 22.0265L19.0448 22.0133L19.0579 22.0045L19.071 22.0133L19.0798 22.0265L19.0885 22.0397L19.1017 22.0484L19.1149 22.0572L19.1237 22.0704L19.1324 22.0836L19.1455 22.0924L19.1674 22.1363L19.1893 22.1803L19.2025 22.189L19.2113 22.2022L19.8027 22.8614C20.1971 23.3008 20.6645 23.7915 21.2048 24.3334C21.7452 24.8754 22.0446 25.1567 22.103 25.1772C22.1615 25.2006 22.2344 25.2679 22.3221 25.3793C22.4098 25.4877 22.7018 25.747 23.1984 26.1571C23.695 26.5672 24.3449 27.0432 25.1481 27.5852C25.9515 28.1272 26.8423 28.6618 27.8209 29.1891C28.7994 29.7165 29.851 30.1925 30.9755 30.6173C32.1001 31.042 32.8888 31.3203 33.3415 31.4522C33.7943 31.584 34.5684 31.7524 35.6637 31.9575C36.7591 32.1626 37.5844 32.2944 38.1393 32.353C38.6943 32.4116 39.0741 32.4453 39.2785 32.4541L39.5852 32.4629L39.5765 32.3969L39.5633 32.3311L39.4757 31.7818C39.4172 31.4156 39.388 30.9029 39.388 30.2437C39.388 29.5846 39.4391 28.9768 39.5413 28.4201C39.6437 27.8635 39.797 27.2996 40.0014 26.7283C40.2059 26.1571 40.406 25.6986 40.6017 25.3529C40.8004 25.0102 41.0603 24.6191 41.3816 24.1796C41.7029 23.7402 42.1191 23.2862 42.6303 22.8175C43.1415 22.3487 43.7257 21.9312 44.3829 21.565C45.0402 21.1989 45.6463 20.9205 46.2012 20.7301C46.7562 20.5397 47.2236 20.4152 47.6033 20.3567C47.983 20.298 48.1729 20.2643 48.1729 20.2556Z" fill="white"/>
</g>
<defs>
<clipPath id="clip0_89_2205">
<rect y="0.0429688" width="80" height="80" rx="15" fill="white"/>
</clipPath>
</defs>
</svg>
