<svg width="80" height="81" viewBox="0 0 80 81" fill="none" xmlns="http://www.w3.org/2000/svg">
<g clip-path="url(#clip0_89_2252)">
<path d="M80 0.0429688H0V80.043H80V0.0429688Z" fill="#56D062"/>
<path fill-rule="evenodd" clip-rule="evenodd" d="M56.9226 23.0204C52.4326 18.5251 46.4611 16.0483 40.0994 16.0457C26.9906 16.0457 16.322 26.7141 16.3167 39.8264C16.3149 44.018 17.4099 48.1097 19.4912 51.7163L16.1172 64.04L28.7248 60.7328C32.1987 62.6278 36.1097 63.6265 40.0898 63.6276H40.0997C53.2071 63.6276 63.8769 52.9583 63.8819 39.8455C63.8845 33.4905 61.413 27.5155 56.9226 23.0204ZM40.0994 59.6112H40.0912C36.5444 59.6097 33.0658 58.6565 30.0304 56.8558L29.3089 56.4273L21.8274 58.3899L23.8243 51.0955L23.3542 50.3477C21.3754 47.2004 20.3305 43.5627 20.3322 39.8279C20.3363 28.9292 29.2041 20.0624 40.1073 20.0624C45.3872 20.0642 50.3504 22.1229 54.0824 25.8593C57.8143 29.5957 59.8684 34.5621 59.8666 39.844C59.8619 50.7434 50.9948 59.6112 40.0994 59.6112ZM50.9421 44.8066C50.3481 44.5089 47.4263 43.0718 46.8814 42.8732C46.3371 42.6749 45.9405 42.5762 45.5448 43.1708C45.1484 43.7655 44.0098 45.1042 43.663 45.5005C43.3162 45.8971 42.9699 45.9469 42.3755 45.6493C41.7812 45.352 39.8666 44.7242 37.5966 42.6998C35.8302 41.1241 34.6377 39.1781 34.2908 38.5834C33.9446 37.9882 34.2879 37.6976 34.5515 37.3707C35.1948 36.5719 35.839 35.7344 36.037 35.3381C36.2353 34.9414 36.136 34.5943 35.9872 34.2969C35.839 33.9996 34.6506 31.0746 34.1555 29.8845C33.6728 28.7262 33.1833 28.8826 32.8183 28.8645C32.472 28.8472 32.0757 28.8437 31.6794 28.8437C31.2833 28.8437 30.6394 28.9922 30.0945 29.5875C29.5499 30.1824 28.015 31.6199 28.015 34.5448C28.015 37.4697 30.1444 40.2953 30.4414 40.692C30.7385 41.0887 34.6318 47.0908 40.5928 49.6646C42.0106 50.2774 43.1173 50.6427 43.9805 50.9166C45.4042 51.3689 46.6992 51.305 47.7233 51.1521C48.8652 50.9813 51.2389 49.7144 51.7345 48.3265C52.2296 46.9383 52.2296 45.7486 52.0808 45.5005C51.9325 45.2527 51.5362 45.1042 50.9421 44.8066Z" fill="white"/>
</g>
<defs>
<clipPath id="clip0_89_2252">
<rect y="0.0429688" width="80" height="80" rx="15" fill="white"/>
</clipPath>
</defs>
</svg>
