<svg width="48" height="48" viewBox="0 0 48 48" fill="none" xmlns="http://www.w3.org/2000/svg">
<g clip-path="url(#clip0_206_58)">
<g filter="url(#filter0_d_206_58)">
<path d="M26.6435 8H20.9918C20.4168 8 19.9506 8.46616 19.9506 9.0412V38.9589C19.9506 39.5339 20.4168 40 20.9918 40H26.6435C27.2185 40 27.6846 39.5339 27.6846 38.9589V9.0412C27.6846 8.46616 27.2185 8 26.6435 8Z" fill="#302CFF" fill-opacity="0.01"/>
</g>
<path d="M26.6435 8H20.9918C20.4168 8 19.9506 8.46616 19.9506 9.0412V38.9589C19.9506 39.5339 20.4168 40 20.9918 40H26.6435C27.2185 40 27.6846 39.5339 27.6846 38.9589V9.0412C27.6846 8.46616 27.2185 8 26.6435 8Z" fill="#302CFF"/>
<g filter="url(#filter1_d_206_58)">
<path d="M38.061 40C41.6919 40 44.6352 37.0567 44.6352 33.4258C44.6352 29.7951 41.6919 26.8517 38.061 26.8517C34.4303 26.8517 31.4869 29.7951 31.4869 33.4258C31.4869 37.0567 34.4303 40 38.061 40Z" fill="#302CFF" fill-opacity="0.01"/>
</g>
<path d="M38.061 40C41.6919 40 44.6352 37.0567 44.6352 33.4258C44.6352 29.7951 41.6919 26.8517 38.061 26.8517C34.4303 26.8517 31.4869 29.7951 31.4869 33.4258C31.4869 37.0567 34.4303 40 38.061 40Z" fill="#302CFF"/>
<path d="M38.061 21.1483C41.6919 21.1483 44.6352 18.205 44.6352 14.5741C44.6352 10.9434 41.6919 8 38.061 8C34.4303 8 31.4869 10.9434 31.4869 14.5741C31.4869 18.205 34.4303 21.1483 38.061 21.1483Z" fill="#070721"/>
<path d="M9.57417 40C13.205 40 16.1484 37.0567 16.1484 33.4258C16.1484 29.7951 13.205 26.8517 9.57417 26.8517C5.94336 26.8517 3 29.7951 3 33.4258C3 37.0567 5.94336 40 9.57417 40Z" fill="#070721"/>
</g>
<defs>
<filter id="filter0_d_206_58" x="11.9506" y="3" width="23.734" height="48" filterUnits="userSpaceOnUse" color-interpolation-filters="sRGB">
<feFlood flood-opacity="0" result="BackgroundImageFix"/>
<feColorMatrix in="SourceAlpha" type="matrix" values="0 0 0 0 0 0 0 0 0 0 0 0 0 0 0 0 0 0 127 0" result="hardAlpha"/>
<feOffset dy="3"/>
<feGaussianBlur stdDeviation="4"/>
<feColorMatrix type="matrix" values="0 0 0 0 0.187417 0 0 0 0 0.170833 0 0 0 0 1 0 0 0 0.2 0"/>
<feBlend mode="normal" in2="BackgroundImageFix" result="effect1_dropShadow_206_58"/>
<feBlend mode="normal" in="SourceGraphic" in2="effect1_dropShadow_206_58" result="shape"/>
</filter>
<filter id="filter1_d_206_58" x="23.4869" y="21.8517" width="29.1483" height="29.1483" filterUnits="userSpaceOnUse" color-interpolation-filters="sRGB">
<feFlood flood-opacity="0" result="BackgroundImageFix"/>
<feColorMatrix in="SourceAlpha" type="matrix" values="0 0 0 0 0 0 0 0 0 0 0 0 0 0 0 0 0 0 127 0" result="hardAlpha"/>
<feOffset dy="3"/>
<feGaussianBlur stdDeviation="4"/>
<feColorMatrix type="matrix" values="0 0 0 0 0.187417 0 0 0 0 0.170833 0 0 0 0 1 0 0 0 0.2 0"/>
<feBlend mode="normal" in2="BackgroundImageFix" result="effect1_dropShadow_206_58"/>
<feBlend mode="normal" in="SourceGraphic" in2="effect1_dropShadow_206_58" result="shape"/>
</filter>
<clipPath id="clip0_206_58">
<rect width="48" height="48" fill="white"/>
</clipPath>
</defs>
</svg>
