<svg width="82" height="18" viewBox="0 0 82 18" fill="none" xmlns="http://www.w3.org/2000/svg">
<path d="M3.92 14.2C1.86 14.2 0.56 13.24 0.56 11.6C0.56 10.06 1.8 9.26 3.76 9.04L8.28 8.56V7.98C8.28 6.34 7.56 5.76 5.66 5.76C3.82 5.76 2.92 6.36 2.92 7.82V7.9H0.78V7.82C0.78 5.56 2.66 3.86 5.82 3.86C8.98 3.86 10.4 5.58 10.4 7.96V14H8.42V11.52H8.28C7.76 13.2 6.18 14.2 3.92 14.2ZM2.72 11.46C2.72 12.26 3.26 12.64 4.5 12.64C6.76 12.64 8.28 11.8 8.28 9.84L4.38 10.28C3.26 10.42 2.72 10.68 2.72 11.46ZM14.4881 17.4H12.3281V4.06H14.3081V6.82H14.4881C14.8881 4.98 16.2881 3.86 18.6281 3.86C21.7081 3.86 23.4481 5.96 23.4481 9.04C23.4481 12.12 21.7481 14.2 18.6481 14.2C16.4081 14.2 14.9681 13.02 14.5681 11.2H14.4881V17.4ZM14.4881 9.2C14.4881 11.24 15.7881 12.24 17.9081 12.24C20.0481 12.24 21.2881 11.42 21.2881 9.04C21.2881 6.64 20.0281 5.84 17.9481 5.84C15.7281 5.84 14.4881 6.88 14.4881 9.02V9.2ZM27.1053 17.4H24.9453V4.06H26.9253V6.82H27.1053C27.5053 4.98 28.9053 3.86 31.2453 3.86C34.3253 3.86 36.0653 5.96 36.0653 9.04C36.0653 12.12 34.3653 14.2 31.2653 14.2C29.0253 14.2 27.5853 13.02 27.1853 11.2H27.1053V17.4ZM27.1053 9.2C27.1053 11.24 28.4053 12.24 30.5253 12.24C32.6653 12.24 33.9053 11.42 33.9053 9.04C33.9053 6.64 32.6453 5.84 30.5653 5.84C28.3453 5.84 27.1053 6.88 27.1053 9.02V9.2ZM39.5425 14H37.5625V0.6H39.7225V6.76H39.8425C40.2425 5.08 41.5625 3.86 43.9425 3.86C47.0025 3.86 48.6825 5.94 48.6825 9.04C48.6825 12.1 46.9825 14.2 43.8225 14.2C41.5625 14.2 40.1025 13.12 39.6825 11.14H39.5425V14ZM39.7225 9.14C39.7225 11.22 41.0025 12.22 43.1425 12.22C45.3225 12.22 46.5225 11.42 46.5225 9.04C46.5225 6.64 45.3025 5.82 43.1825 5.82C40.9425 5.82 39.7225 6.86 39.7225 8.98V9.14ZM54.3197 14.2C51.5197 14.2 50.1597 12.34 50.1597 10.04V4.06H52.2997V9.46C52.2997 11.32 53.1597 12.26 55.2597 12.26C57.4597 12.26 58.4797 11.14 58.4797 8.98V4.06H60.6197V14H58.6397V10.92H58.5197C58.1997 12.6 56.8797 14.2 54.3197 14.2ZM64.742 2.9H62.582V0.6H64.742V2.9ZM64.742 14H62.582V4.06H64.742V14ZM68.9022 14H66.7422V0.6H68.9022V14ZM75.2823 14.2C72.1423 14.2 70.4023 12.1 70.4023 9.04C70.4023 5.94 72.1223 3.86 75.1423 3.86C77.5023 3.86 78.8423 5.08 79.2423 6.76H79.3623V0.6H81.5223V14H79.5423V11.14H79.4023C78.9823 13.12 77.5223 14.2 75.2823 14.2ZM72.5823 9.04C72.5823 11.42 73.8023 12.22 75.9423 12.22C78.0623 12.22 79.3623 11.22 79.3623 9.14V8.98C79.3623 6.86 78.1223 5.82 75.9023 5.82C73.8223 5.82 72.5823 6.64 72.5823 9.04Z" fill="#3632FF"/>
</svg>
