<svg width="159" height="26" viewBox="0 0 159 26" fill="none" xmlns="http://www.w3.org/2000/svg">
<path d="M3.92 19.5154C1.86 19.5154 0.56 18.5554 0.56 16.9154C0.56 15.3754 1.8 14.5754 3.76 14.3554L8.28 13.8754V13.2954C8.28 11.6554 7.56 11.0754 5.66 11.0754C3.82 11.0754 2.92 11.6754 2.92 13.1354V13.2154H0.78V13.1354C0.78 10.8754 2.66 9.17543 5.82 9.17543C8.98 9.17543 10.4 10.8954 10.4 13.2754V19.3154H8.42V16.8354H8.28C7.76 18.5154 6.18 19.5154 3.92 19.5154ZM2.72 16.7754C2.72 17.5754 3.26 17.9554 4.5 17.9554C6.76 17.9554 8.28 17.1154 8.28 15.1554L4.38 15.5954C3.26 15.7354 2.72 15.9954 2.72 16.7754ZM14.4881 22.7154H12.3281V9.37543H14.3081V12.1354H14.4881C14.8881 10.2954 16.2881 9.17543 18.6281 9.17543C21.7081 9.17543 23.4481 11.2754 23.4481 14.3554C23.4481 17.4354 21.7481 19.5154 18.6481 19.5154C16.4081 19.5154 14.9681 18.3354 14.5681 16.5154H14.4881V22.7154ZM14.4881 14.5154C14.4881 16.5554 15.7881 17.5554 17.9081 17.5554C20.0481 17.5554 21.2881 16.7354 21.2881 14.3554C21.2881 11.9554 20.0281 11.1554 17.9481 11.1554C15.7281 11.1554 14.4881 12.1954 14.4881 14.3354V14.5154ZM27.1053 22.7154H24.9453V9.37543H26.9253V12.1354H27.1053C27.5053 10.2954 28.9053 9.17543 31.2453 9.17543C34.3253 9.17543 36.0653 11.2754 36.0653 14.3554C36.0653 17.4354 34.3653 19.5154 31.2653 19.5154C29.0253 19.5154 27.5853 18.3354 27.1853 16.5154H27.1053V22.7154ZM27.1053 14.5154C27.1053 16.5554 28.4053 17.5554 30.5253 17.5554C32.6653 17.5554 33.9053 16.7354 33.9053 14.3554C33.9053 11.9554 32.6453 11.1554 30.5653 11.1554C28.3453 11.1554 27.1053 12.1954 27.1053 14.3354V14.5154ZM39.5425 19.3154H37.5625V5.91543H39.7225V12.0754H39.8425C40.2425 10.3954 41.5625 9.17543 43.9425 9.17543C47.0025 9.17543 48.6825 11.2554 48.6825 14.3554C48.6825 17.4154 46.9825 19.5154 43.8225 19.5154C41.5625 19.5154 40.1025 18.4354 39.6825 16.4554H39.5425V19.3154ZM39.7225 14.4554C39.7225 16.5354 41.0025 17.5354 43.1425 17.5354C45.3225 17.5354 46.5225 16.7354 46.5225 14.3554C46.5225 11.9554 45.3025 11.1354 43.1825 11.1354C40.9425 11.1354 39.7225 12.1754 39.7225 14.2954V14.4554ZM54.3197 19.5154C51.5197 19.5154 50.1597 17.6554 50.1597 15.3554V9.37543H52.2997V14.7754C52.2997 16.6354 53.1597 17.5754 55.2597 17.5754C57.4597 17.5754 58.4797 16.4554 58.4797 14.2954V9.37543H60.6197V19.3154H58.6397V16.2354H58.5197C58.1997 17.9154 56.8797 19.5154 54.3197 19.5154ZM64.742 8.21543H62.582V5.91543H64.742V8.21543ZM64.742 19.3154H62.582V9.37543H64.742V19.3154ZM68.9022 19.3154H66.7422V5.91543H68.9022V19.3154ZM75.2823 19.5154C72.1423 19.5154 70.4023 17.4154 70.4023 14.3554C70.4023 11.2554 72.1223 9.17543 75.1423 9.17543C77.5023 9.17543 78.8423 10.3954 79.2423 12.0754H79.3623V5.91543H81.5223V19.3154H79.5423V16.4554H79.4023C78.9823 18.4354 77.5223 19.5154 75.2823 19.5154ZM72.5823 14.3554C72.5823 16.7354 73.8023 17.5354 75.9423 17.5354C78.0623 17.5354 79.3623 16.5354 79.3623 14.4554V14.2954C79.3623 12.1754 78.1223 11.1354 75.9023 11.1354C73.8223 11.1354 72.5823 11.9554 72.5823 14.3554ZM88.2975 19.3154H86.5375V16.5354H88.2975V19.3154ZM92.8463 19.5154C90.9063 19.5154 89.5863 18.5954 89.5863 16.9954C89.5863 15.3754 90.9263 14.6754 92.7663 14.4754L97.4663 13.9554V13.1954C97.4663 11.2754 96.6263 10.5154 94.4663 10.5154C92.3463 10.5154 91.2263 11.2754 91.2263 13.0154V13.0954H89.8063V13.0154C89.8063 10.9354 91.5263 9.23543 94.5663 9.23543C97.5663 9.23543 98.8463 10.9554 98.8463 13.1354V19.3154H97.5663V16.6554H97.4663C96.8863 18.4754 95.1463 19.5154 92.8463 19.5154ZM91.0063 16.8954C91.0063 17.8954 91.6663 18.4154 93.1663 18.4154C95.5663 18.4154 97.4663 17.3554 97.4663 14.9754V14.8954L93.2063 15.3754C91.7263 15.5154 91.0063 15.8754 91.0063 16.8954ZM105.42 18.5154C102.48 18.5154 100.68 16.5754 100.68 13.8754C100.68 11.1754 102.54 9.23543 105.58 9.23543C107.66 9.23543 109.3 10.2154 109.7 11.9754H109.8V9.43543H111.08V18.3754C111.08 21.6354 109.02 22.9154 106.04 22.9154C103.36 22.9154 101.32 21.5754 101.32 19.2754H102.74C102.74 21.0154 103.9 21.6954 106.1 21.6954C108.66 21.6954 109.66 20.9154 109.66 18.4554V15.8754H109.56C109.16 17.3954 107.7 18.5154 105.42 18.5154ZM102.1 13.8754C102.1 16.3954 103.66 17.2554 105.8 17.2554C108.24 17.2554 109.66 16.0354 109.66 13.9354V13.5954C109.66 11.6554 108.18 10.4954 105.9 10.4954C103.68 10.4954 102.1 11.3554 102.1 13.8754ZM118.185 19.5154C115.005 19.5154 112.985 17.5154 112.985 14.3754C112.985 11.3754 114.985 9.23543 118.165 9.23543C121.065 9.23543 123.125 10.9154 123.125 13.8554C123.125 14.2154 123.085 14.5154 123.025 14.7754H114.325C114.405 16.9954 115.545 18.3354 118.165 18.3354C120.485 18.3354 121.565 17.4754 121.565 16.0354V15.8954H122.985V16.0354C122.985 18.0954 120.945 19.5154 118.185 19.5154ZM118.145 10.4154C115.585 10.4154 114.425 11.7354 114.325 13.8954H121.785C121.785 13.7954 121.785 13.6954 121.785 13.5954C121.785 11.5154 120.465 10.4154 118.145 10.4154ZM126.429 19.3154H125.009V9.43543H126.289V12.5354H126.389C126.729 10.8554 128.129 9.23543 130.589 9.23543C133.369 9.23543 134.749 11.2154 134.749 13.5554V19.3154H133.329V13.7554C133.329 11.7154 132.349 10.5354 130.089 10.5354C127.689 10.5354 126.429 11.9954 126.429 14.5354V19.3154ZM141.779 19.5154C138.619 19.5154 136.559 17.3754 136.559 14.3754C136.559 11.3754 138.619 9.23543 141.779 9.23543C144.539 9.23543 146.699 10.8754 146.699 13.2554V13.4154H145.299V13.2954C145.299 11.5354 144.019 10.5354 141.759 10.5354C139.119 10.5354 137.979 11.9554 137.979 14.3754C137.979 16.7954 139.119 18.2154 141.759 18.2154C144.019 18.2154 145.299 17.2154 145.299 15.4554V15.3354H146.699V15.4954C146.699 17.8754 144.539 19.5154 141.779 19.5154ZM149.902 22.7154H148.662V21.4154H150.162C151.162 21.4154 151.542 21.1154 151.922 20.2954L152.402 19.2954L147.502 9.43543H149.062L151.962 15.3154L153.062 17.7354H153.182L154.242 15.2954L156.982 9.43543H158.542L153.182 20.6954C152.462 22.2154 151.542 22.7154 149.902 22.7154Z" fill="white"/>
</svg>
