<svg width="36" height="38" viewBox="0 0 36 38" fill="none" xmlns="http://www.w3.org/2000/svg">
<g filter="url(#filter0_d_591_17)">
<path d="M15.7623 5H11.9946C11.6112 5 11.3004 5.31078 11.3004 5.69413V25.6393C11.3004 26.0226 11.6112 26.3333 11.9946 26.3333H15.7623C16.1457 26.3333 16.4564 26.0226 16.4564 25.6393V5.69413C16.4564 5.31078 16.1457 5 15.7623 5Z" fill="#302CFF" fill-opacity="0.01"/>
</g>
<path d="M15.7623 5H11.9946C11.6112 5 11.3004 5.31078 11.3004 5.69413V25.6393C11.3004 26.0226 11.6112 26.3333 11.9946 26.3333H15.7623C16.1457 26.3333 16.4564 26.0226 16.4564 25.6393V5.69413C16.4564 5.31078 16.1457 5 15.7623 5Z" fill="#302CFF"/>
<g filter="url(#filter1_d_591_17)">
<path d="M23.374 26.3333C25.7946 26.3333 27.7568 24.3711 27.7568 21.9506C27.7568 19.5301 25.7946 17.5678 23.374 17.5678C20.9536 17.5678 18.9913 19.5301 18.9913 21.9506C18.9913 24.3711 20.9536 26.3333 23.374 26.3333Z" fill="#302CFF" fill-opacity="0.01"/>
</g>
<path d="M23.374 26.3333C25.7946 26.3333 27.7568 24.3711 27.7568 21.9506C27.7568 19.5301 25.7946 17.5678 23.374 17.5678C20.9536 17.5678 18.9913 19.5301 18.9913 21.9506C18.9913 24.3711 20.9536 26.3333 23.374 26.3333Z" fill="#302CFF"/>
<path d="M23.374 13.7655C25.7946 13.7655 27.7568 11.8033 27.7568 9.38275C27.7568 6.96223 25.7946 5 23.374 5C20.9536 5 18.9913 6.96223 18.9913 9.38275C18.9913 11.8033 20.9536 13.7655 23.374 13.7655Z" fill="#070721"/>
<path d="M4.38278 26.3333C6.80332 26.3333 8.76559 24.3711 8.76559 21.9506C8.76559 19.5301 6.80332 17.5678 4.38278 17.5678C1.96224 17.5678 0 19.5301 0 21.9506C0 24.3711 1.96224 26.3333 4.38278 26.3333Z" fill="#070721"/>
<defs>
<filter id="filter0_d_591_17" x="3.30042" y="0" width="21.156" height="37.3333" filterUnits="userSpaceOnUse" color-interpolation-filters="sRGB">
<feFlood flood-opacity="0" result="BackgroundImageFix"/>
<feColorMatrix in="SourceAlpha" type="matrix" values="0 0 0 0 0 0 0 0 0 0 0 0 0 0 0 0 0 0 127 0" result="hardAlpha"/>
<feOffset dy="3"/>
<feGaussianBlur stdDeviation="4"/>
<feColorMatrix type="matrix" values="0 0 0 0 0.187417 0 0 0 0 0.170833 0 0 0 0 1 0 0 0 0.2 0"/>
<feBlend mode="normal" in2="BackgroundImageFix" result="effect1_dropShadow_591_17"/>
<feBlend mode="normal" in="SourceGraphic" in2="effect1_dropShadow_591_17" result="shape"/>
</filter>
<filter id="filter1_d_591_17" x="10.9913" y="12.5678" width="24.7656" height="24.7656" filterUnits="userSpaceOnUse" color-interpolation-filters="sRGB">
<feFlood flood-opacity="0" result="BackgroundImageFix"/>
<feColorMatrix in="SourceAlpha" type="matrix" values="0 0 0 0 0 0 0 0 0 0 0 0 0 0 0 0 0 0 127 0" result="hardAlpha"/>
<feOffset dy="3"/>
<feGaussianBlur stdDeviation="4"/>
<feColorMatrix type="matrix" values="0 0 0 0 0.187417 0 0 0 0 0.170833 0 0 0 0 1 0 0 0 0.2 0"/>
<feBlend mode="normal" in2="BackgroundImageFix" result="effect1_dropShadow_591_17"/>
<feBlend mode="normal" in="SourceGraphic" in2="effect1_dropShadow_591_17" result="shape"/>
</filter>
</defs>
</svg>
