<svg width="82" height="17" viewBox="0 0 82 17" fill="none" xmlns="http://www.w3.org/2000/svg">
<path d="M3.92 13.7C1.86 13.7 0.56 12.74 0.56 11.1C0.56 9.56 1.8 8.76 3.76 8.54L8.28 8.06V7.48C8.28 5.84 7.56 5.26 5.66 5.26C3.82 5.26 2.92 5.86 2.92 7.32V7.4H0.78V7.32C0.78 5.06 2.66 3.36 5.82 3.36C8.98 3.36 10.4 5.08 10.4 7.46V13.5H8.42V11.02H8.28C7.76 12.7 6.18 13.7 3.92 13.7ZM2.72 10.96C2.72 11.76 3.26 12.14 4.5 12.14C6.76 12.14 8.28 11.3 8.28 9.34L4.38 9.78C3.26 9.92 2.72 10.18 2.72 10.96ZM14.4881 16.9H12.3281V3.56H14.3081V6.32H14.4881C14.8881 4.48 16.2881 3.36 18.6281 3.36C21.7081 3.36 23.4481 5.46 23.4481 8.54C23.4481 11.62 21.7481 13.7 18.6481 13.7C16.4081 13.7 14.9681 12.52 14.5681 10.7H14.4881V16.9ZM14.4881 8.7C14.4881 10.74 15.7881 11.74 17.9081 11.74C20.0481 11.74 21.2881 10.92 21.2881 8.54C21.2881 6.14 20.0281 5.34 17.9481 5.34C15.7281 5.34 14.4881 6.38 14.4881 8.52V8.7ZM27.1053 16.9H24.9453V3.56H26.9253V6.32H27.1053C27.5053 4.48 28.9053 3.36 31.2453 3.36C34.3253 3.36 36.0653 5.46 36.0653 8.54C36.0653 11.62 34.3653 13.7 31.2653 13.7C29.0253 13.7 27.5853 12.52 27.1853 10.7H27.1053V16.9ZM27.1053 8.7C27.1053 10.74 28.4053 11.74 30.5253 11.74C32.6653 11.74 33.9053 10.92 33.9053 8.54C33.9053 6.14 32.6453 5.34 30.5653 5.34C28.3453 5.34 27.1053 6.38 27.1053 8.52V8.7ZM39.5425 13.5H37.5625V0.0999997H39.7225V6.26H39.8425C40.2425 4.58 41.5625 3.36 43.9425 3.36C47.0025 3.36 48.6825 5.44 48.6825 8.54C48.6825 11.6 46.9825 13.7 43.8225 13.7C41.5625 13.7 40.1025 12.62 39.6825 10.64H39.5425V13.5ZM39.7225 8.64C39.7225 10.72 41.0025 11.72 43.1425 11.72C45.3225 11.72 46.5225 10.92 46.5225 8.54C46.5225 6.14 45.3025 5.32 43.1825 5.32C40.9425 5.32 39.7225 6.36 39.7225 8.48V8.64ZM54.3197 13.7C51.5197 13.7 50.1597 11.84 50.1597 9.54V3.56H52.2997V8.96C52.2997 10.82 53.1597 11.76 55.2597 11.76C57.4597 11.76 58.4797 10.64 58.4797 8.48V3.56H60.6197V13.5H58.6397V10.42H58.5197C58.1997 12.1 56.8797 13.7 54.3197 13.7ZM64.742 2.4H62.582V0.0999997H64.742V2.4ZM64.742 13.5H62.582V3.56H64.742V13.5ZM68.9022 13.5H66.7422V0.0999997H68.9022V13.5ZM75.2823 13.7C72.1423 13.7 70.4023 11.6 70.4023 8.54C70.4023 5.44 72.1223 3.36 75.1423 3.36C77.5023 3.36 78.8423 4.58 79.2423 6.26H79.3623V0.0999997H81.5223V13.5H79.5423V10.64H79.4023C78.9823 12.62 77.5223 13.7 75.2823 13.7ZM72.5823 8.54C72.5823 10.92 73.8023 11.72 75.9423 11.72C78.0623 11.72 79.3623 10.72 79.3623 8.64V8.48C79.3623 6.36 78.1223 5.32 75.9023 5.32C73.8223 5.32 72.5823 6.14 72.5823 8.54Z" fill="#3632FF"/>
</svg>
