<svg width="125" height="32" viewBox="0 0 125 32" fill="none" xmlns="http://www.w3.org/2000/svg">
<g clip-path="url(#clip0_588_15)">
<g filter="url(#filter0_d_588_15)">
<path d="M17.7623 5.33334H13.9945C13.6112 5.33334 13.3004 5.64412 13.3004 6.02747V25.9726C13.3004 26.3559 13.6112 26.6667 13.9945 26.6667H17.7623C18.1457 26.6667 18.4564 26.3559 18.4564 25.9726V6.02747C18.4564 5.64412 18.1457 5.33334 17.7623 5.33334Z" fill="#302CFF" fill-opacity="0.01"/>
</g>
<path d="M17.7623 5.33334H13.9945C13.6112 5.33334 13.3004 5.64412 13.3004 6.02747V25.9726C13.3004 26.3559 13.6112 26.6667 13.9945 26.6667H17.7623C18.1457 26.6667 18.4564 26.3559 18.4564 25.9726V6.02747C18.4564 5.64412 18.1457 5.33334 17.7623 5.33334Z" fill="#302CFF"/>
<g filter="url(#filter1_d_588_15)">
<path d="M25.374 26.6667C27.7946 26.6667 29.7568 24.7045 29.7568 22.2839C29.7568 19.8634 27.7946 17.9011 25.374 17.9011C22.9535 17.9011 20.9912 19.8634 20.9912 22.2839C20.9912 24.7045 22.9535 26.6667 25.374 26.6667Z" fill="#302CFF" fill-opacity="0.01"/>
</g>
<path d="M25.374 26.6667C27.7946 26.6667 29.7568 24.7045 29.7568 22.2839C29.7568 19.8634 27.7946 17.9011 25.374 17.9011C22.9535 17.9011 20.9912 19.8634 20.9912 22.2839C20.9912 24.7045 22.9535 26.6667 25.374 26.6667Z" fill="#302CFF"/>
<path d="M25.374 14.0989C27.7946 14.0989 29.7568 12.1367 29.7568 9.71609C29.7568 7.29558 27.7946 5.33334 25.374 5.33334C22.9535 5.33334 20.9912 7.29558 20.9912 9.71609C20.9912 12.1367 22.9535 14.0989 25.374 14.0989Z" fill="#070721"/>
<path d="M6.38278 26.6667C8.80332 26.6667 10.7656 24.7045 10.7656 22.2839C10.7656 19.8634 8.80332 17.9011 6.38278 17.9011C3.96224 17.9011 2 19.8634 2 22.2839C2 24.7045 3.96224 26.6667 6.38278 26.6667Z" fill="#070721"/>
</g>
<path d="M45.92 22.7C43.86 22.7 42.56 21.74 42.56 20.1C42.56 18.56 43.8 17.76 45.76 17.54L50.28 17.06V16.48C50.28 14.84 49.56 14.26 47.66 14.26C45.82 14.26 44.92 14.86 44.92 16.32V16.4H42.78V16.32C42.78 14.06 44.66 12.36 47.82 12.36C50.98 12.36 52.4 14.08 52.4 16.46V22.5H50.42V20.02H50.28C49.76 21.7 48.18 22.7 45.92 22.7ZM44.72 19.96C44.72 20.76 45.26 21.14 46.5 21.14C48.76 21.14 50.28 20.3 50.28 18.34L46.38 18.78C45.26 18.92 44.72 19.18 44.72 19.96ZM56.4881 25.9H54.3281V12.56H56.3081V15.32H56.4881C56.8881 13.48 58.2881 12.36 60.6281 12.36C63.7081 12.36 65.4481 14.46 65.4481 17.54C65.4481 20.62 63.7481 22.7 60.6481 22.7C58.4081 22.7 56.9681 21.52 56.5681 19.7H56.4881V25.9ZM56.4881 17.7C56.4881 19.74 57.7881 20.74 59.9081 20.74C62.0481 20.74 63.2881 19.92 63.2881 17.54C63.2881 15.14 62.0281 14.34 59.9481 14.34C57.7281 14.34 56.4881 15.38 56.4881 17.52V17.7ZM69.1053 25.9H66.9453V12.56H68.9253V15.32H69.1053C69.5053 13.48 70.9053 12.36 73.2453 12.36C76.3253 12.36 78.0653 14.46 78.0653 17.54C78.0653 20.62 76.3653 22.7 73.2653 22.7C71.0253 22.7 69.5853 21.52 69.1853 19.7H69.1053V25.9ZM69.1053 17.7C69.1053 19.74 70.4053 20.74 72.5253 20.74C74.6653 20.74 75.9053 19.92 75.9053 17.54C75.9053 15.14 74.6453 14.34 72.5653 14.34C70.3453 14.34 69.1053 15.38 69.1053 17.52V17.7ZM81.5425 22.5H79.5625V9.1H81.7225V15.26H81.8425C82.2425 13.58 83.5625 12.36 85.9425 12.36C89.0025 12.36 90.6825 14.44 90.6825 17.54C90.6825 20.6 88.9825 22.7 85.8225 22.7C83.5625 22.7 82.1025 21.62 81.6825 19.64H81.5425V22.5ZM81.7225 17.64C81.7225 19.72 83.0025 20.72 85.1425 20.72C87.3225 20.72 88.5225 19.92 88.5225 17.54C88.5225 15.14 87.3025 14.32 85.1825 14.32C82.9425 14.32 81.7225 15.36 81.7225 17.48V17.64ZM96.3197 22.7C93.5197 22.7 92.1597 20.84 92.1597 18.54V12.56H94.2997V17.96C94.2997 19.82 95.1597 20.76 97.2597 20.76C99.4597 20.76 100.48 19.64 100.48 17.48V12.56H102.62V22.5H100.64V19.42H100.52C100.2 21.1 98.8797 22.7 96.3197 22.7ZM106.742 11.4H104.582V9.1H106.742V11.4ZM106.742 22.5H104.582V12.56H106.742V22.5ZM110.902 22.5H108.742V9.1H110.902V22.5ZM117.282 22.7C114.142 22.7 112.402 20.6 112.402 17.54C112.402 14.44 114.122 12.36 117.142 12.36C119.502 12.36 120.842 13.58 121.242 15.26H121.362V9.1H123.522V22.5H121.542V19.64H121.402C120.982 21.62 119.522 22.7 117.282 22.7ZM114.582 17.54C114.582 19.92 115.802 20.72 117.942 20.72C120.062 20.72 121.362 19.72 121.362 17.64V17.48C121.362 15.36 120.122 14.32 117.902 14.32C115.822 14.32 114.582 15.14 114.582 17.54Z" fill="#3632FF"/>
<defs>
<filter id="filter0_d_588_15" x="5.30038" y="0.333344" width="21.156" height="37.3333" filterUnits="userSpaceOnUse" color-interpolation-filters="sRGB">
<feFlood flood-opacity="0" result="BackgroundImageFix"/>
<feColorMatrix in="SourceAlpha" type="matrix" values="0 0 0 0 0 0 0 0 0 0 0 0 0 0 0 0 0 0 127 0" result="hardAlpha"/>
<feOffset dy="3"/>
<feGaussianBlur stdDeviation="4"/>
<feColorMatrix type="matrix" values="0 0 0 0 0.187417 0 0 0 0 0.170833 0 0 0 0 1 0 0 0 0.2 0"/>
<feBlend mode="normal" in2="BackgroundImageFix" result="effect1_dropShadow_588_15"/>
<feBlend mode="normal" in="SourceGraphic" in2="effect1_dropShadow_588_15" result="shape"/>
</filter>
<filter id="filter1_d_588_15" x="12.9912" y="12.9011" width="24.7655" height="24.7656" filterUnits="userSpaceOnUse" color-interpolation-filters="sRGB">
<feFlood flood-opacity="0" result="BackgroundImageFix"/>
<feColorMatrix in="SourceAlpha" type="matrix" values="0 0 0 0 0 0 0 0 0 0 0 0 0 0 0 0 0 0 127 0" result="hardAlpha"/>
<feOffset dy="3"/>
<feGaussianBlur stdDeviation="4"/>
<feColorMatrix type="matrix" values="0 0 0 0 0.187417 0 0 0 0 0.170833 0 0 0 0 1 0 0 0 0.2 0"/>
<feBlend mode="normal" in2="BackgroundImageFix" result="effect1_dropShadow_588_15"/>
<feBlend mode="normal" in="SourceGraphic" in2="effect1_dropShadow_588_15" result="shape"/>
</filter>
<clipPath id="clip0_588_15">
<rect width="32" height="32" fill="white"/>
</clipPath>
</defs>
</svg>
