<svg width="123" height="30" viewBox="0 0 123 30" fill="none" xmlns="http://www.w3.org/2000/svg">
<rect width="123" height="30" rx="5" fill="#3632FF"/>
<path d="M12.8483 20H11.1203V9.28H13.4723L16.5603 15.488L17.5363 17.712H17.6643L18.6083 15.488L21.6643 9.28H24.0163V20H22.2883V13.424L22.3523 11.872H22.2243L21.5683 13.424L18.6083 19.36H16.5283L13.5683 13.424L12.9123 11.872H12.7843L12.8483 13.424V20ZM29.6843 20.16C27.0443 20.16 25.2683 18.48 25.2683 16.032C25.2683 13.552 27.0443 11.888 29.6843 11.888C32.3403 11.888 34.1163 13.552 34.1163 16.032C34.1163 18.48 32.3403 20.16 29.6843 20.16ZM29.6843 18.624C31.6203 18.624 32.4203 17.712 32.4203 16.032C32.4203 14.336 31.6203 13.408 29.6843 13.408C27.7643 13.408 26.9643 14.336 26.9643 16.032C26.9643 17.712 27.7643 18.624 29.6843 18.624ZM39.1303 20.16C36.5703 20.16 35.1143 19.152 35.1143 17.312V17.264H36.8423V17.392C36.8423 18.432 37.4663 18.768 39.1303 18.768C40.6823 18.768 41.1463 18.448 41.1463 17.744C41.1463 17.088 40.7623 16.88 39.6263 16.72L37.4503 16.432C35.9463 16.24 35.0343 15.6 35.0343 14.272C35.0343 12.88 36.2983 11.888 38.7463 11.888C41.1783 11.888 42.6503 12.864 42.6503 14.752V14.8H40.9383V14.704C40.9383 13.76 40.4583 13.264 38.6983 13.264C37.2423 13.264 36.7303 13.584 36.7303 14.336C36.7303 14.96 37.0503 15.184 38.2503 15.344L40.0903 15.6C41.9783 15.84 42.8423 16.48 42.8423 17.792C42.8423 19.28 41.3703 20.16 39.1303 20.16ZM49.3051 20H47.4811C45.7691 20 44.7131 19.248 44.7131 17.312V13.488H43.3691V12.048H44.7131V10.304H46.4251V12.048H49.3051V13.488H46.4251V17.216C46.4251 18.192 46.8731 18.448 47.8651 18.448H49.3051V20ZM54.8483 22.72H53.1203V12.048H54.7043V14.256H54.8483C55.1683 12.784 56.2883 11.888 58.1603 11.888C60.6243 11.888 62.0163 13.568 62.0163 16.032C62.0163 18.496 60.6563 20.16 58.1763 20.16C56.3843 20.16 55.2323 19.216 54.9123 17.76H54.8483V22.72ZM54.8483 16.16C54.8483 17.792 55.8883 18.592 57.5843 18.592C59.2963 18.592 60.2883 17.936 60.2883 16.032C60.2883 14.112 59.2803 13.472 57.6163 13.472C55.8403 13.472 54.8483 14.304 54.8483 16.016V16.16ZM67.2781 20.16C64.6381 20.16 62.8621 18.48 62.8621 16.032C62.8621 13.552 64.6381 11.888 67.2781 11.888C69.9341 11.888 71.7101 13.552 71.7101 16.032C71.7101 18.48 69.9341 20.16 67.2781 20.16ZM67.2781 18.624C69.2141 18.624 70.0141 17.712 70.0141 16.032C70.0141 14.336 69.2141 13.408 67.2781 13.408C65.3581 13.408 64.5581 14.336 64.5581 16.032C64.5581 17.712 65.3581 18.624 67.2781 18.624ZM74.6921 22.72H72.9641V12.048H74.5481V14.256H74.6921C75.0121 12.784 76.1321 11.888 78.0041 11.888C80.4681 11.888 81.8601 13.568 81.8601 16.032C81.8601 18.496 80.5001 20.16 78.0201 20.16C76.2281 20.16 75.0761 19.216 74.7561 17.76H74.6921V22.72ZM74.6921 16.16C74.6921 17.792 75.7321 18.592 77.4281 18.592C79.1401 18.592 80.1321 17.936 80.1321 16.032C80.1321 14.112 79.1241 13.472 77.4601 13.472C75.6841 13.472 74.6921 14.304 74.6921 16.016V16.16ZM86.3698 20.16C84.1298 20.16 83.0418 18.672 83.0418 16.832V12.048H84.7538V16.368C84.7538 17.856 85.4418 18.608 87.1218 18.608C88.8818 18.608 89.6978 17.712 89.6978 15.984V12.048H91.4098V20H89.8258V17.536H89.7298C89.4738 18.88 88.4178 20.16 86.3698 20.16ZM94.7077 20H92.9797V9.28H94.7077V20ZM98.6438 20.16C96.9958 20.16 95.9558 19.392 95.9558 18.08C95.9558 16.848 96.9478 16.208 98.5158 16.032L102.132 15.648V15.184C102.132 13.872 101.556 13.408 100.036 13.408C98.5638 13.408 97.8438 13.888 97.8438 15.056V15.12H96.1318V15.056C96.1318 13.248 97.6358 11.888 100.164 11.888C102.692 11.888 103.828 13.264 103.828 15.168V20H102.244V18.016H102.132C101.716 19.36 100.452 20.16 98.6438 20.16ZM97.6838 17.968C97.6838 18.608 98.1158 18.912 99.1078 18.912C100.916 18.912 102.132 18.24 102.132 16.672L99.0118 17.024C98.1158 17.136 97.6838 17.344 97.6838 17.968ZM107.098 20H105.37V12.048H106.954V14.192H107.066C107.306 12.912 108.17 11.888 109.802 11.888C111.61 11.888 112.394 13.184 112.394 14.688V15.728H110.682V15.024C110.682 13.888 110.202 13.36 109.018 13.36C107.658 13.36 107.098 14.112 107.098 15.536V20Z" fill="white"/>
</svg>
