<svg width="20" height="21" viewBox="0 0 20 21" fill="none" xmlns="http://www.w3.org/2000/svg">
<path fill-rule="evenodd" clip-rule="evenodd" d="M5 0.5C3.67392 0.5 2.40215 1.02678 1.46447 1.96447C0.526784 2.90215 0 4.17392 0 5.5V15.5C0 16.8261 0.526784 18.0979 1.46447 19.0355C2.40215 19.9732 3.67392 20.5 5 20.5H15C16.3261 20.5 17.5979 19.9732 18.5355 19.0355C19.4732 18.0979 20 16.8261 20 15.5V5.5C20 4.17392 19.4732 2.90215 18.5355 1.96447C17.5979 1.02678 16.3261 0.5 15 0.5H5ZM13.73 9.184C13.8198 9.08813 13.8899 8.97552 13.9362 8.85257C13.9825 8.72963 14.0041 8.59877 13.9998 8.46747C13.9956 8.33617 13.9655 8.207 13.9113 8.08732C13.8571 7.96765 13.7799 7.85982 13.684 7.77C13.5881 7.68018 13.4755 7.61011 13.3526 7.56381C13.2296 7.51751 13.0988 7.49588 12.9675 7.50015C12.8362 7.50442 12.707 7.53451 12.5873 7.58871C12.4677 7.6429 12.3598 7.72014 12.27 7.816L9.187 11.106L7.664 9.753C7.46446 9.58712 7.20825 9.5053 6.9495 9.52482C6.69075 9.54434 6.44972 9.66368 6.27732 9.85762C6.10493 10.0516 6.01467 10.3049 6.02562 10.5642C6.03657 10.8234 6.14787 11.0683 6.336 11.247L8.586 13.247C8.78069 13.4199 9.03515 13.5101 9.29529 13.4983C9.55543 13.4866 9.80072 13.3738 9.979 13.184L13.73 9.184Z" fill="#3632FF"/>
</svg>
