<svg width="329" height="109" viewBox="0 0 329 109" fill="none" xmlns="http://www.w3.org/2000/svg">
<path d="M176 1.45407C174.266 1.85407 168 3.32074 162.133 4.65407C156.266 5.85407 150.266 7.58741 148.8 8.52074C147.333 9.32074 143.333 10.7874 139.733 11.8541C136.266 12.7874 133.066 14.1207 132.666 14.6541C132.266 15.3207 130.933 15.8541 129.6 15.8541C128.4 15.8541 123.466 17.9874 118.8 20.5207C114 23.0541 109.733 25.1874 109.333 25.1874C108.8 25.1874 108.8 22.5207 109.066 19.3207C109.466 16.1207 109.2 13.1874 108.533 12.7874C106.266 11.3207 97.9998 14.6541 74.1332 26.2541C59.9998 33.1874 56.6665 34.9207 54.5332 36.7874C51.4665 39.5874 49.9998 38.1207 49.7332 32.3874C49.4665 24.9207 47.9998 24.2541 39.3332 27.1874C28.5332 30.7874 10.6665 44.3874 2.53316 55.1874C-1.06684 59.8541 -0.800178 59.7207 4.93316 53.8541C21.1998 37.0541 45.3332 23.5874 47.1998 30.3874C48.2665 34.3874 44.7998 41.9874 40.1332 45.9874C37.7332 48.1207 33.1998 52.2541 30.1332 55.1874C27.0665 58.1207 19.7332 64.9207 13.8665 70.1207C6.53316 76.9207 2.79982 81.3207 1.73316 84.6541C-1.60018 95.5874 5.33316 96.1207 15.8665 85.5874C17.4665 83.9874 18.7998 82.2541 18.7998 81.8541C18.7998 81.4541 20.2665 79.7207 21.8665 78.1207C23.5998 76.5207 25.8665 73.7207 26.7998 71.8541C27.7332 69.9874 29.3332 67.5874 30.2665 66.5207C31.3332 65.4541 35.4665 60.1207 39.5998 54.7874C43.5998 49.5874 47.5998 45.1874 48.3998 45.1874C49.0665 45.1874 51.9998 43.4541 54.6665 41.4541C57.3332 39.4541 64.1332 35.3207 69.8665 32.5207C75.5998 29.5874 80.6665 26.7874 80.9332 26.2541C81.3332 25.7207 82.7998 25.1874 84.1332 25.1874C85.4665 25.1874 86.7998 24.7874 87.0665 24.1207C87.5998 22.7874 98.6665 17.4541 103.2 16.3874C106.8 15.5874 106.933 15.7207 106 19.3207C104.266 26.6541 101.466 30.3874 93.1998 36.6541C83.9998 43.5874 74.6665 51.7207 61.7332 64.1207C53.3332 71.9874 49.4665 78.3874 49.4665 83.9874C49.4665 86.5207 49.9998 86.7874 54.5332 85.8541C57.1998 85.4541 60.1332 84.2541 60.7998 83.3207C61.5998 82.3874 63.4665 81.1874 65.1998 80.6541C66.7998 80.1207 68.1332 79.0541 68.1332 78.2541C68.1332 77.4541 68.3998 77.0541 68.7998 77.4541C69.1998 77.8541 72.6665 74.9207 76.5332 71.1874C90.1332 57.4541 97.5998 48.1207 103.6 37.4541C106 33.0541 109.466 29.0541 111.866 27.8541C114 26.6541 117.466 24.6541 119.333 23.4541C121.2 22.1207 122.8 21.4541 122.8 21.8541C122.8 22.1207 124.8 21.3207 127.333 19.8541C129.866 18.5207 134.133 16.9207 136.666 16.3874C139.333 15.9874 141.866 15.0541 142.266 14.3874C142.666 13.7207 144.133 13.1874 145.6 13.1874C146.933 13.1874 148.133 12.5207 148.133 11.8541C148.133 11.0541 150.133 10.5207 152.666 10.5207C155.2 10.5207 157.6 9.98741 158 9.45407C158.4 8.78741 160.533 8.25407 162.666 8.12074C164.8 8.12074 167.866 7.45407 169.333 6.65407C170.8 5.85407 172.533 5.18741 173.066 5.32074C173.6 5.45407 174.4 5.32074 174.8 5.18741C175.2 5.05407 176.666 4.78741 178.133 4.65407C179.6 4.38741 181.466 4.12074 182.133 3.85407C182.933 3.72074 186.666 3.58741 190.533 3.72074C197.066 3.85407 197.466 4.12074 197.466 7.18741C197.466 9.05407 196.4 11.7207 195.2 13.1874C193.866 14.5207 191.6 17.9874 190.133 20.7874C185.6 29.4541 180.533 33.4541 167.466 38.5207C163.066 40.2541 157.866 42.6541 156 43.7207C139.866 53.4541 133.333 57.4541 131.866 58.9207C130.933 59.7207 128 61.7207 125.466 63.0541C122.933 64.5207 120.533 65.9874 120.133 66.5207C119.733 66.9207 116.8 69.1874 113.466 71.4541C91.5998 86.5207 78.9332 109.721 93.9998 107.321C102.8 105.987 114.666 100.387 119.466 95.3207C120.266 94.5207 122.933 92.3874 125.6 90.5207C132.933 85.4541 146.666 73.0541 166.4 53.4541C182.533 37.4541 185.6 35.0541 195.733 30.3874C201.866 27.5874 207.733 25.1874 208.533 25.1874C209.466 25.1874 211.866 24.2541 213.866 23.1874C216 22.1207 218.933 21.0541 220.533 20.7874C222.133 20.5207 224.533 19.8541 225.866 19.4541C230.8 17.5874 232.8 17.0541 239.2 16.3874C248.267 15.3207 257.467 16.7874 257.467 19.3207C257.467 23.3207 252.133 30.7874 242.267 40.5207C236.666 46.1207 232.133 51.1874 232.133 51.7207C232.133 52.9207 222.533 57.9874 221.733 57.3207C221.466 57.1874 220.533 57.9874 219.6 59.3207C218.666 60.5207 217.2 61.1874 216.4 60.6541C215.6 60.2541 214.666 60.3874 214.133 61.1874C213.733 61.8541 210.8 63.7207 207.733 65.1874C202.266 67.8541 200.133 69.0541 193.466 73.3207C191.6 74.5207 186.533 77.4541 182.133 79.8541C177.733 82.2541 172.933 85.3207 171.466 86.6541C170 87.9874 166.666 91.0541 164 93.4541C161.2 95.9874 158.666 99.7207 158.133 102.254C157.333 105.854 157.733 106.654 160.266 107.721C162 108.254 165.733 108.254 168.8 107.587C179.6 105.321 200.533 92.2541 204.266 85.4541C205.2 83.8541 206.4 82.5207 207.066 82.5207C207.733 82.5207 213.066 77.8541 218.8 72.1207C231.733 59.3207 234.4 57.1874 236.666 57.1874C237.6 57.1874 239.2 56.2541 240.133 55.1874C241.067 54.1207 243.467 53.1874 245.6 53.1874C247.733 53.1874 249.467 52.5207 249.467 51.8541C249.467 51.0541 250.667 50.5207 252.133 50.5207C253.6 50.5207 254.8 49.8541 254.8 49.0541C254.8 48.2541 255.6 47.8541 256.667 48.2541C257.6 48.6541 259.2 48.2541 260 47.4541C260.8 46.6541 261.467 46.5207 261.467 47.1874C261.467 47.7207 262.533 47.3207 263.867 46.2541C265.067 45.0541 268 43.8541 270.133 43.4541C275.867 42.5207 286 38.5207 286.933 36.9207C287.467 36.1207 288.667 35.8541 289.6 36.1207C290.667 36.5207 292.667 36.2541 294.133 35.4541C295.6 34.6541 298.667 33.8541 300.8 33.5874C303.067 33.3207 307.467 32.2541 310.8 31.1874C314.133 30.1207 319.733 28.6541 323.2 27.7207C332.933 25.3207 329.6 24.6541 317.2 26.5207C311.067 27.4541 304.4 28.3874 302.133 28.6541C300 28.7874 296.133 29.5874 293.867 30.3874C291.467 31.0541 289.467 31.3207 289.467 30.9207C289.467 30.5207 288.533 31.0541 287.333 31.9874C286.133 32.9207 284 33.8541 282.533 34.1207C281.067 34.3874 278.667 35.3207 277.067 36.1207C275.467 37.0541 273.6 37.5874 272.933 37.4541C272.4 37.1874 270.4 37.9874 268.667 39.1874C266.8 40.3874 264.8 40.9207 264.133 40.5207C263.467 40.1207 262.533 40.5207 262.133 41.3207C261.6 41.9874 260.4 42.3874 259.333 41.9874C258.267 41.5874 257.067 42.1207 256.667 43.1874C256.133 44.2541 254.933 45.1874 253.867 45.1874C252.8 45.1874 250.267 46.1207 248.133 47.1874C241.733 50.5207 241.867 46.9207 248.4 40.7874C256.4 33.1874 260.133 27.5874 260.133 22.7874C260.133 16.2541 256 12.7874 246.933 11.5874C246.533 11.5874 245.6 11.7207 244.8 11.8541C244.133 11.9874 240.933 11.9874 237.867 11.8541C234.533 11.7207 232.133 12.2541 232.133 13.0541C232.133 13.8541 231.066 14.3874 229.866 14.2541C227.2 13.8541 217.466 16.5207 211.466 19.1874C207.066 21.0541 202.533 22.9207 201.466 23.0541C201.066 23.1874 198.8 23.9874 196.4 25.0541C191.333 27.1874 189.466 26.2541 192.666 23.1874C193.866 21.9874 194.8 20.3874 194.8 19.7207C194.8 19.0541 196.4 16.1207 198.266 13.1874C201.333 8.52074 201.6 7.32074 200.4 4.52074C199.6 2.65407 198.133 1.05407 197.2 1.05407C191.466 0.387405 178.8 0.654072 176 1.45407ZM95.8665 42.5207C94.9332 44.1207 90.9332 48.7874 87.1998 52.9207C83.3332 57.0541 80.1332 61.3207 80.1332 62.1207C80.1332 63.0541 79.5998 63.8541 79.0665 63.8541C78.5332 63.8541 74.5332 67.0541 70.3998 70.9207C61.1998 79.3207 55.8665 82.6541 53.7332 81.3207C51.1998 79.8541 57.0665 72.9207 74.3998 57.1874C82.3998 49.9874 83.8665 48.6541 91.3332 42.7874C96.1332 39.0541 97.9998 39.0541 95.8665 42.5207ZM171.733 43.0541C170.533 43.9874 169.466 45.4541 169.466 46.3874C169.466 47.1874 168.933 47.8541 168.4 47.8541C167.866 47.8541 162.266 52.7874 155.866 58.7874C139.6 74.5207 133.6 79.8541 132.4 79.8541C131.866 79.8541 130.533 81.0541 129.466 82.5207C128.4 84.1207 125.733 86.3874 123.466 87.8541C121.333 89.1874 116.933 92.2541 113.733 94.3874C110.666 96.6541 107.466 98.5207 106.8 98.5207C106 98.5207 105.466 99.1874 105.466 100.121C105.466 100.921 105.066 101.187 104.533 100.787C104.133 100.254 102.266 100.787 100.666 101.854C98.9332 102.921 95.9998 103.721 94.1332 103.587C91.1998 103.321 90.7998 102.787 91.4665 100.254C91.8665 98.5207 93.1998 96.1207 94.5332 94.7874C95.7332 93.5874 97.9998 91.0541 99.4665 89.1874C100.933 87.3207 106 82.7874 110.8 79.1874C115.466 75.4541 120.533 71.5874 122 70.5207C123.333 69.4541 125.6 67.4541 127.066 66.1207C128.4 64.7874 130.133 64.1207 130.666 64.5207C131.333 64.7874 132.533 64.2541 133.466 63.1874C134.266 62.1207 138.4 59.4541 142.533 57.0541C146.666 54.7874 150.4 52.5207 150.8 51.9874C151.466 51.0541 161.733 46.2541 162.8 46.2541C163.2 46.2541 164.266 45.5874 165.333 44.7874C168 42.5207 172.666 40.2541 173.466 40.7874C173.866 41.1874 173.066 42.1207 171.733 43.0541ZM241.467 49.1874C241.467 49.8541 240.8 50.5207 240 50.5207C239.333 50.5207 239.067 49.8541 239.467 49.1874C239.867 48.3874 240.533 47.8541 240.933 47.8541C241.2 47.8541 241.467 48.3874 241.467 49.1874ZM26.7998 66.5207C26.7998 67.1874 25.5998 68.3874 24.1332 69.1874C22.6665 69.9874 21.4665 71.4541 21.4665 72.5207C21.4665 73.5874 20.9332 74.5207 20.1332 74.5207C19.4665 74.5207 18.7998 75.0541 18.7998 75.7207C18.7998 77.9874 8.66649 87.8541 6.39982 87.8541C5.19982 87.8541 4.13316 87.5874 4.13316 87.1874C4.13316 85.4541 7.46649 79.8541 8.39982 79.8541C9.19982 79.8541 13.0665 76.5207 17.1998 72.5207C24.5332 65.3207 26.7998 63.9874 26.7998 66.5207ZM215.2 69.7207C213.866 71.5874 211.466 73.7207 209.866 74.6541C208.133 75.5874 206.533 77.3207 206 78.7874C205.6 80.1207 204.933 81.1874 204.4 81.1874C203.866 81.1874 201.466 83.0541 199.066 85.3207C193.066 90.9207 183.066 98.5207 181.6 98.5207C180.933 98.5207 179.733 99.3207 178.933 100.387C176.666 103.187 163.733 105.187 161.6 103.054C160.4 101.987 176.133 87.9874 181.2 85.7207C183.466 84.6541 188.933 81.5874 193.2 78.9207C202.8 72.6541 213.6 66.7874 215.866 66.6541C217.066 66.5207 216.8 67.4541 215.2 69.7207Z" fill="#0048FF"/>
</svg>
