<svg width="30" height="30" viewBox="0 0 30 30" fill="none" xmlns="http://www.w3.org/2000/svg">
<rect width="30" height="30" rx="15" fill="#3632FF"/>
<rect x="4.44399" y="4.44336" width="21.5848" height="21.5848" rx="10.7924" fill="#3632FF"/>
<path d="M11.8255 10C12.3034 10 12.7451 10.0363 13.1505 10.1452C13.5549 10.2177 13.8877 10.3691 14.1832 10.5505C14.4797 10.733 14.6985 10.9922 14.8478 11.325C14.9929 11.6568 15.0717 12.0622 15.0717 12.5039C15.0717 13.0182 14.9618 13.4598 14.7026 13.7916C14.4797 14.1234 14.1158 14.4199 13.6689 14.6387C14.2972 14.8212 14.7752 15.153 15.0665 15.5946C15.3579 16.0363 15.5445 16.5869 15.5445 17.2152C15.5445 17.7294 15.4356 18.1711 15.249 18.5402C15.0628 18.9117 14.7835 19.2286 14.4382 19.4599C14.1065 19.6828 13.7011 19.8642 13.2594 19.9741C12.8267 20.0884 12.3818 20.1497 11.9343 20.1566L7.00014 20.1639V10H11.8255ZM11.53 14.1244C11.9343 14.1244 12.2661 14.0156 12.5222 13.8289C12.7773 13.6423 12.8903 13.3137 12.8903 12.9093C12.8903 12.6853 12.854 12.4676 12.7814 12.3214C12.7028 12.1733 12.5889 12.0468 12.4496 11.9534C12.2992 11.8713 12.1385 11.81 11.9717 11.7709C11.7892 11.7346 11.6026 11.7346 11.3838 11.7346H9.25003V14.1296C9.25003 14.1244 11.53 14.1244 11.53 14.1244ZM11.6388 18.4718C11.8618 18.4718 12.0805 18.4355 12.2671 18.3992C12.4496 18.3629 12.6363 18.2893 12.7814 18.1753C12.9266 18.0612 13.0406 17.9523 13.1505 17.7709C13.2231 17.5884 13.2957 17.3655 13.2957 17.1063C13.2957 16.592 13.1505 16.2229 12.854 15.9637C12.5585 15.7408 12.1531 15.632 11.6751 15.632H9.25003V18.4666H11.6399L11.6388 18.4718ZM18.7493 18.4355C19.0458 18.731 19.4865 18.8772 20.0743 18.8772C20.4787 18.8772 20.8478 18.7673 21.1443 18.5807C21.4398 18.3577 21.6213 18.139 21.6938 17.9171H23.4979C23.2014 18.7994 22.7597 19.4277 22.1728 19.8331C21.586 20.2012 20.8841 20.42 20.037 20.42C19.4953 20.4224 18.9581 20.3221 18.4538 20.1245C17.9999 19.9557 17.5949 19.6772 17.2749 19.3137C16.9337 18.9747 16.6803 18.5576 16.5367 18.0985C16.3553 17.6206 16.2775 17.1063 16.2775 16.5143C16.2775 15.9637 16.3501 15.4443 16.5367 14.9663C16.7234 14.4894 16.9784 14.083 17.3112 13.7149C17.643 13.3831 18.0484 13.0866 18.4901 12.9041C18.9826 12.708 19.508 12.6077 20.0381 12.6086C20.6664 12.6086 21.2169 12.7175 21.6949 12.9767C22.1718 13.2359 22.542 13.5283 22.8374 13.97C23.1329 14.3743 23.3517 14.8523 23.502 15.3676C23.5746 15.8818 23.6109 16.4002 23.5746 16.9881H18.235C18.235 17.5895 18.4528 18.139 18.7493 18.4355ZM21.0718 14.5661C20.8125 14.3069 20.4061 14.1607 19.9281 14.1607C19.5964 14.1607 19.3413 14.2333 19.1184 14.3432C18.8955 14.4521 18.7493 14.6024 18.6041 14.7476C18.4686 14.8899 18.3784 15.0692 18.3449 15.2629C18.3076 15.4443 18.2724 15.5946 18.2724 15.7398H21.586C21.5134 15.1944 21.3278 14.8253 21.0718 14.5661ZM17.8296 10.7009H21.9541V11.6931H17.8296V10.7009Z" fill="white"/>
</svg>
