<svg width="30" height="30" viewBox="0 0 30 30" fill="none" xmlns="http://www.w3.org/2000/svg">
<rect width="30" height="30" rx="15" fill="#3632FF"/>
<g clip-path="url(#clip0_150_2007)">
<path fill-rule="evenodd" clip-rule="evenodd" d="M15.2363 7.61816C11.0306 7.61816 7.61815 11.0306 7.61815 15.2363C7.61815 19.4421 11.0306 22.8545 15.2363 22.8545C19.4338 22.8545 22.8545 19.4421 22.8545 15.2363C22.8545 11.0306 19.4338 7.61816 15.2363 7.61816ZM20.2683 11.1298C21.1772 12.237 21.7226 13.6499 21.7391 15.1785C21.5242 15.1372 19.3759 14.6993 17.2111 14.972C17.1615 14.8645 17.1202 14.7488 17.0707 14.6332C16.9384 14.3192 16.7897 13.997 16.641 13.6912C19.0371 12.7163 20.1278 11.3116 20.2683 11.1298ZM15.2363 8.74189C16.8889 8.74189 18.4009 9.36159 19.5495 10.3779C19.4338 10.5432 18.4505 11.8569 16.1369 12.7245C15.0711 10.7662 13.8895 9.16328 13.7077 8.9154C14.1952 8.79973 14.7075 8.74189 15.2363 8.74189ZM12.4684 9.35332C12.6419 9.58468 13.7986 11.1959 14.881 13.1128C11.8404 13.9226 9.15501 13.9061 8.86581 13.9061C9.28721 11.89 10.6505 10.2126 12.4684 9.35332ZM8.72535 15.2446C8.72535 15.1785 8.72535 15.1124 8.72535 15.0463C9.00628 15.0546 12.1626 15.0959 15.4098 14.1209C15.5999 14.4844 15.7734 14.8562 15.9387 15.2281C15.856 15.2529 15.7651 15.2777 15.6825 15.3024C12.3279 16.3848 10.5431 19.3429 10.3944 19.5908C9.36157 18.4423 8.72535 16.9137 8.72535 15.2446ZM15.2363 21.7473C13.7325 21.7473 12.3444 21.2351 11.2455 20.3757C11.3611 20.1361 12.6831 17.5912 16.3518 16.3105C16.3683 16.3022 16.3766 16.3022 16.3931 16.294C17.3102 18.6653 17.6821 20.6566 17.7812 21.2268C16.9963 21.5655 16.1369 21.7473 15.2363 21.7473ZM18.8636 20.6319C18.7976 20.2353 18.4505 18.3349 17.5994 15.9965C19.6404 15.6743 21.4251 16.2031 21.6482 16.2775C21.3673 18.087 20.3261 19.6486 18.8636 20.6319Z" fill="white"/>
</g>
<defs>
<clipPath id="clip0_150_2007">
<rect width="15.2364" height="15.2364" fill="white" transform="translate(7.61815 7.61816)"/>
</clipPath>
</defs>
</svg>
