<svg width="30" height="30" viewBox="0 0 30 30" fill="none" xmlns="http://www.w3.org/2000/svg">
<rect width="30" height="30" rx="15" fill="#3632FF"/>
<g clip-path="url(#clip0_150_1999)">
<path d="M15.2364 8.99119C17.2717 8.99119 17.5106 9.00026 18.3151 9.03656C19.0591 9.06982 19.4613 9.19382 19.7305 9.29967C20.0873 9.43879 20.3414 9.6021 20.6075 9.86823C20.8736 10.1344 21.04 10.3884 21.1761 10.7453C21.2789 11.0144 21.4059 11.4167 21.4392 12.1606C21.4755 12.9651 21.4846 13.204 21.4846 15.2394C21.4846 17.2747 21.4755 17.5136 21.4392 18.3181C21.4059 19.0621 21.2819 19.4643 21.1761 19.7335C21.037 20.0903 20.8736 20.3444 20.6075 20.6105C20.3414 20.8766 20.0873 21.043 19.7305 21.1791C19.4613 21.2819 19.0591 21.4089 18.3151 21.4422C17.5106 21.4785 17.2717 21.4875 15.2364 21.4875C13.201 21.4875 12.9621 21.4785 12.1576 21.4422C11.4137 21.4089 11.0114 21.2849 10.7423 21.1791C10.3854 21.04 10.1314 20.8766 9.86523 20.6105C9.59909 20.3444 9.43275 20.0903 9.29666 19.7335C9.19383 19.4643 9.06681 19.0621 9.03355 18.3181C8.99726 17.5136 8.98818 17.2747 8.98818 15.2394C8.98818 13.204 8.99726 12.9651 9.03355 12.1606C9.06681 11.4167 9.19081 11.0144 9.29666 10.7453C9.43578 10.3884 9.59909 10.1344 9.86523 9.86823C10.1314 9.6021 10.3854 9.43576 10.7423 9.29967C11.0114 9.19684 11.4137 9.06982 12.1576 9.03656C12.9621 8.99724 13.204 8.99119 15.2364 8.99119ZM15.2364 7.61816C13.1678 7.61816 12.9077 7.62724 12.0941 7.66353C11.2836 7.69982 10.7302 7.82986 10.2463 8.01737C9.74426 8.21092 9.32085 8.47404 8.89745 8.89744C8.47405 9.32084 8.21396 9.74726 8.01739 10.2463C7.82988 10.7302 7.69984 11.2836 7.66354 12.0971C7.62725 12.9076 7.61818 13.1677 7.61818 15.2363C7.61818 17.305 7.62725 17.565 7.66354 18.3786C7.69984 19.1891 7.82988 19.7425 8.01739 20.2294C8.21094 20.7315 8.47405 21.1549 8.89745 21.5783C9.32085 22.0017 9.74728 22.2618 10.2463 22.4583C10.7302 22.6459 11.2836 22.7759 12.0972 22.8122C12.9107 22.8485 13.1678 22.8576 15.2394 22.8576C17.311 22.8576 17.5681 22.8485 18.3816 22.8122C19.1921 22.7759 19.7456 22.6459 20.2325 22.4583C20.7345 22.2648 21.1579 22.0017 21.5813 21.5783C22.0047 21.1549 22.2648 20.7285 22.4614 20.2294C22.6489 19.7456 22.7789 19.1921 22.8152 18.3786C22.8515 17.565 22.8606 17.308 22.8606 15.2363C22.8606 13.1647 22.8515 12.9076 22.8152 12.0941C22.7789 11.2836 22.6489 10.7302 22.4614 10.2432C22.2678 9.74121 22.0047 9.31781 21.5813 8.89441C21.1579 8.47101 20.7315 8.21092 20.2325 8.01435C19.7486 7.82684 19.1952 7.6968 18.3816 7.6605C17.5651 7.62724 17.305 7.61816 15.2364 7.61816Z" fill="white"/>
<path d="M15.2364 8.99119C17.2717 8.99119 17.5106 9.00026 18.3151 9.03656C19.0591 9.06982 19.4613 9.19382 19.7305 9.29967C20.0873 9.43879 20.3414 9.6021 20.6075 9.86823C20.8736 10.1344 21.04 10.3884 21.1761 10.7453C21.2789 11.0144 21.4059 11.4167 21.4392 12.1606C21.4755 12.9651 21.4846 13.204 21.4846 15.2394C21.4846 17.2747 21.4755 17.5136 21.4392 18.3181C21.4059 19.0621 21.2819 19.4643 21.1761 19.7335C21.037 20.0903 20.8736 20.3444 20.6075 20.6105C20.3414 20.8766 20.0873 21.043 19.7305 21.1791C19.4613 21.2819 19.0591 21.4089 18.3151 21.4422C17.5106 21.4785 17.2717 21.4875 15.2364 21.4875C13.201 21.4875 12.9621 21.4785 12.1576 21.4422C11.4137 21.4089 11.0114 21.2849 10.7423 21.1791C10.3854 21.04 10.1314 20.8766 9.86523 20.6105C9.59909 20.3444 9.43275 20.0903 9.29666 19.7335C9.19383 19.4643 9.06681 19.0621 9.03355 18.3181C8.99726 17.5136 8.98818 17.2747 8.98818 15.2394C8.98818 13.204 8.99726 12.9651 9.03355 12.1606C9.06681 11.4167 9.19081 11.0144 9.29666 10.7453C9.43578 10.3884 9.59909 10.1344 9.86523 9.86823C10.1314 9.6021 10.3854 9.43576 10.7423 9.29967C11.0114 9.19684 11.4137 9.06982 12.1576 9.03656C12.9621 8.99724 13.204 8.99119 15.2364 8.99119Z" fill="white"/>
<path d="M15.2364 11.3257C13.077 11.3257 11.3229 13.0767 11.3229 15.2391C11.3229 17.4015 13.074 19.1525 15.2364 19.1525C17.3987 19.1525 19.1498 17.4015 19.1498 15.2391C19.1498 13.0767 17.3987 11.3257 15.2364 11.3257ZM15.2364 17.7765C13.8331 17.7765 12.6959 16.6394 12.6959 15.2361C12.6959 13.8328 13.8331 12.6957 15.2364 12.6957C16.6396 12.6957 17.7768 13.8328 17.7768 15.2361C17.7768 16.6394 16.6396 17.7765 15.2364 17.7765Z" fill="#3632FF"/>
<path d="M19.3041 12.082C19.8086 12.082 20.2175 11.6731 20.2175 11.1687C20.2175 10.6643 19.8086 10.2554 19.3041 10.2554C18.7997 10.2554 18.3908 10.6643 18.3908 11.1687C18.3908 11.6731 18.7997 12.082 19.3041 12.082Z" fill="#3632FF"/>
</g>
<defs>
<clipPath id="clip0_150_1999">
<rect width="15.2364" height="15.2364" fill="white" transform="translate(7.61818 7.61816)"/>
</clipPath>
</defs>
</svg>
