<svg width="30" height="30" viewBox="0 0 30 30" fill="none" xmlns="http://www.w3.org/2000/svg">
<rect width="30" height="30" rx="15" fill="#3632FF"/>
<g clip-path="url(#clip0_150_2004)">
<path d="M21.7298 7.61816H8.74293C8.44464 7.61816 8.15855 7.73666 7.94762 7.94759C7.73669 8.15852 7.61819 8.4446 7.61819 8.7429V21.7298C7.61819 22.0281 7.73669 22.3142 7.94762 22.5251C8.15855 22.736 8.44464 22.8545 8.74293 22.8545H21.7298C22.0281 22.8545 22.3142 22.736 22.5251 22.5251C22.7361 22.3142 22.8546 22.0281 22.8546 21.7298V8.7429C22.8546 8.4446 22.7361 8.15852 22.5251 7.94759C22.3142 7.73666 22.0281 7.61816 21.7298 7.61816ZM12.1595 20.5976H9.86873V13.3212H12.1595V20.5976ZM11.0125 12.3129C10.7527 12.3114 10.4991 12.233 10.2838 12.0876C10.0684 11.9421 9.90101 11.7361 9.80263 11.4956C9.70425 11.2551 9.67932 10.9909 9.73099 10.7362C9.78266 10.4815 9.9086 10.2479 10.0929 10.0647C10.2773 9.88158 10.5117 9.75714 10.7667 9.70711C11.0217 9.65708 11.2858 9.6837 11.5257 9.78362C11.7655 9.88354 11.9704 10.0523 12.1145 10.2685C12.2586 10.4848 12.3353 10.7389 12.3351 10.9987C12.3376 11.1727 12.305 11.3454 12.2393 11.5065C12.1736 11.6676 12.0761 11.8138 11.9527 11.9364C11.8292 12.0591 11.6824 12.1556 11.5209 12.2203C11.3594 12.2849 11.1865 12.3164 11.0125 12.3129ZM20.603 20.604H18.3133V16.6288C18.3133 15.4564 17.8149 15.0946 17.1716 15.0946C16.4923 15.0946 15.8257 15.6067 15.8257 16.6584V20.604H13.535V13.3265H15.7379V14.3349H15.7675C15.9887 13.8873 16.7632 13.1223 17.9451 13.1223C19.2232 13.1223 20.604 13.8809 20.604 16.1029L20.603 20.604Z" fill="white"/>
</g>
<defs>
<clipPath id="clip0_150_2004">
<rect width="15.2364" height="15.2364" fill="white" transform="translate(7.61819 7.61816)"/>
</clipPath>
</defs>
</svg>
