<svg width="30" height="30" viewBox="0 0 30 30" fill="none" xmlns="http://www.w3.org/2000/svg">
<rect width="30" height="30" rx="15" fill="#3632FF"/>
<g clip-path="url(#clip0_150_2018)">
<path fill-rule="evenodd" clip-rule="evenodd" d="M8.9117 14.1534C12.8487 12.4381 15.474 11.3072 16.7876 10.7609C20.5381 9.20092 21.3174 8.92994 21.8253 8.92099C21.9371 8.91903 22.1868 8.94671 22.3487 9.07801C22.4853 9.18887 22.5229 9.33863 22.5409 9.44374C22.5589 9.54885 22.5813 9.7883 22.5634 9.97539C22.3602 12.1109 21.4808 17.2931 21.0334 19.6848C20.8441 20.6969 20.4713 21.0362 20.1104 21.0694C19.3262 21.1416 18.7306 20.5511 17.971 20.0532C16.7824 19.274 16.1109 18.789 14.9572 18.0287C13.6238 17.15 14.4882 16.6671 15.248 15.8779C15.4469 15.6713 18.9024 12.5283 18.9693 12.2432C18.9776 12.2075 18.9854 12.0746 18.9064 12.0044C18.8275 11.9342 18.7109 11.9582 18.6268 11.9773C18.5076 12.0043 16.6088 13.2594 12.9303 15.7425C12.3913 16.1126 11.9031 16.2929 11.4657 16.2834C10.9835 16.273 10.056 16.0108 9.36642 15.7867C8.52067 15.5117 7.84848 15.3664 7.90701 14.8995C7.9375 14.6563 8.27239 14.4076 8.9117 14.1534Z" fill="white"/>
</g>
<defs>
<clipPath id="clip0_150_2018">
<rect width="15.2364" height="15.2364" fill="white" transform="translate(7.61816 6.98389)"/>
</clipPath>
</defs>
</svg>
