<svg width="30" height="30" viewBox="0 0 30 30" fill="none" xmlns="http://www.w3.org/2000/svg">
<rect width="30" height="30" rx="15" fill="#3632FF"/>
<g clip-path="url(#clip0_150_1996)">
<path d="M20.9863 12.1767C20.9922 12.3107 20.9922 12.4387 20.9922 12.5728C20.9981 16.6379 18.0115 21.3307 12.5497 21.3307C10.9388 21.3307 9.35731 20.8492 7.99922 19.9472C8.23439 19.9777 8.46956 19.9899 8.70472 19.9899C10.0393 19.9899 11.3386 19.5267 12.391 18.6674C11.1211 18.643 10.004 17.7837 9.616 16.5282C10.0628 16.6196 10.5214 16.6013 10.9565 16.4733C9.57484 16.193 8.58126 14.9314 8.57538 13.4626C8.57538 13.4504 8.57538 13.4382 8.57538 13.426C8.98692 13.6637 9.45138 13.7978 9.92171 13.81C8.62242 12.908 8.21675 11.1101 9.00456 9.70226C10.5155 11.6281 12.7378 12.7922 15.1248 12.9202C14.8837 11.8536 15.213 10.7322 15.9832 9.97652C17.1766 8.81246 19.058 8.8734 20.1868 10.1106C20.8511 9.97652 21.4919 9.72055 22.074 9.36097C21.8506 10.074 21.3861 10.6774 20.7688 11.0614C21.3567 10.9882 21.9329 10.8237 22.4738 10.5799C22.074 11.2015 21.5684 11.7378 20.9863 12.1767Z" fill="white"/>
</g>
<defs>
<clipPath id="clip0_150_1996">
<rect width="15.2364" height="15.2364" fill="white" transform="translate(7.6183 7.61816)"/>
</clipPath>
</defs>
</svg>
