<svg width="30" height="30" viewBox="0 0 30 30" fill="none" xmlns="http://www.w3.org/2000/svg">
<rect width="30" height="30" rx="15" fill="#3632FF"/>
<g clip-path="url(#clip0_150_2011)">
<path d="M7.6181 22.2203L8.69497 18.3098C8.0292 17.162 7.67994 15.8621 7.68358 14.5333C7.68358 10.3693 11.0888 6.98389 15.269 6.98389C17.2991 6.98389 19.2054 7.7696 20.6352 9.1962C22.0686 10.6228 22.8581 12.5201 22.8544 14.5369C22.8544 18.7008 19.4492 22.0863 15.2654 22.0863H15.2617C13.992 22.0863 12.7442 21.7677 11.6346 21.1666L7.6181 22.2203ZM11.8274 19.8016L12.0566 19.9391C13.0243 20.5112 14.1339 20.8118 15.2654 20.8154H15.269C18.7434 20.8154 21.5738 18.002 21.5738 14.5405C21.5738 12.8641 20.919 11.289 19.7293 10.1014C18.5397 8.91378 16.9535 8.26203 15.269 8.26203C11.7946 8.25841 8.96419 11.0718 8.96419 14.5333C8.96419 15.7173 9.29526 16.8723 9.92829 17.8717L10.0774 18.1106L9.44078 20.4243L11.8274 19.8016Z" fill="white"/>
<path d="M7.88378 21.9548L8.92428 18.1783C8.28033 17.0739 7.94199 15.8175 7.94199 14.5358C7.94563 10.5167 11.2308 7.24707 15.2691 7.24707C17.2301 7.24707 19.0673 8.00744 20.4498 9.38335C21.8322 10.7593 22.5926 12.5914 22.5926 14.5394C22.5926 18.5585 19.3038 21.8281 15.2691 21.8281H15.2655C14.0394 21.8281 12.8352 21.5203 11.7656 20.941L7.88378 21.9548Z" fill="#3632FF"/>
<path d="M7.6181 22.2203L8.69497 18.3098C8.0292 17.162 7.67994 15.8621 7.68358 14.5333C7.68358 10.3693 11.0888 6.98389 15.269 6.98389C17.2991 6.98389 19.2054 7.7696 20.6352 9.1962C22.0686 10.6228 22.8581 12.5201 22.8544 14.5369C22.8544 18.7008 19.4492 22.0863 15.2654 22.0863H15.2617C13.992 22.0863 12.7442 21.7677 11.6346 21.1666L7.6181 22.2203ZM11.8274 19.8016L12.0566 19.9391C13.0243 20.5112 14.1339 20.8118 15.2654 20.8154H15.269C18.7434 20.8154 21.5738 18.002 21.5738 14.5405C21.5738 12.8641 20.919 11.289 19.7293 10.1014C18.5397 8.91378 16.9535 8.26203 15.269 8.26203C11.7946 8.25841 8.96419 11.0718 8.96419 14.5333C8.96419 15.7173 9.29526 16.8723 9.92829 17.8717L10.0774 18.1106L9.44078 20.4243L11.8274 19.8016Z" fill="white"/>
<path fill-rule="evenodd" clip-rule="evenodd" d="M13.3736 11.3754C13.2317 11.0604 13.0826 11.0531 12.9479 11.0495C12.8388 11.0459 12.7115 11.0459 12.5841 11.0459C12.4568 11.0459 12.2531 11.093 12.0784 11.2813C11.9038 11.4695 11.4163 11.9258 11.4163 12.8563C11.4163 13.7832 12.0966 14.6812 12.1912 14.8079C12.2858 14.9346 13.5046 16.9007 15.4291 17.6575C17.0299 18.2875 17.3573 18.1608 17.7029 18.1282C18.0486 18.0956 18.8235 17.672 18.9836 17.2302C19.14 16.7885 19.14 16.4119 19.0927 16.3323C19.0454 16.2526 18.9181 16.2056 18.7289 16.1114C18.5397 16.0173 17.6084 15.561 17.4337 15.4959C17.2591 15.4343 17.1318 15.4017 17.0081 15.59C16.8807 15.7783 16.5169 16.2019 16.4078 16.3287C16.2986 16.4554 16.1859 16.4699 15.9967 16.3757C15.8075 16.2816 15.1963 16.0824 14.4723 15.4379C13.9084 14.9383 13.5264 14.3191 13.4173 14.1308C13.3081 13.9425 13.4063 13.8412 13.5009 13.747C13.5846 13.6637 13.6901 13.5262 13.7847 13.4175C13.8793 13.3089 13.912 13.2292 13.9739 13.1025C14.0357 12.9758 14.0066 12.8672 13.9593 12.773C13.912 12.6825 13.541 11.7483 13.3736 11.3754Z" fill="white"/>
</g>
<defs>
<clipPath id="clip0_150_2011">
<rect width="15.2364" height="15.2364" fill="white" transform="translate(7.6181 6.98389)"/>
</clipPath>
</defs>
</svg>
