<svg width="110" height="110" viewBox="0 0 110 110" fill="none" xmlns="http://www.w3.org/2000/svg">
<g clip-path="url(#clip0_425_6)">
<rect width="110" height="110" rx="15" fill="white"/>
<path d="M45.9767 21.3022H18.8019C15.2801 21.3022 12.4251 24.1572 12.4251 27.6791V71.7876C12.4251 75.3094 15.2801 78.1644 18.8019 78.1644H45.9767C49.4985 78.1644 52.3535 75.3094 52.3535 71.7876V27.6791C52.3535 24.1572 49.4985 21.3022 45.9767 21.3022Z" fill="#302CFF"/>
<path opacity="0.32" d="M91.1982 21.3022H64.0234C60.5016 21.3022 57.6466 24.1572 57.6466 27.6791V71.7876C57.6466 75.3094 60.5016 78.1644 64.0234 78.1644H91.1982C94.72 78.1644 97.575 75.3094 97.575 71.7876V27.6791C97.575 24.1572 94.72 21.3022 91.1982 21.3022Z" fill="#302CFF"/>
<path opacity="0.3" d="M33.3989 77.4017V83.1178C33.3989 86.1993 35.897 88.6975 38.9786 88.6975H71.6322C74.7137 88.6975 77.2119 86.1993 77.2119 83.1178V77.4017" stroke="#302CFF" stroke-width="3" stroke-linecap="round"/>
<path d="M77.6109 84.048C80.8603 84.048 83.4944 81.4138 83.4944 78.1645C83.4944 74.9151 80.8603 72.281 77.6109 72.281C74.3615 72.281 71.7274 74.9151 71.7274 78.1645C71.7274 81.4138 74.3615 84.048 77.6109 84.048Z" fill="#302CFF"/>
<path d="M32.3894 84.048C35.6388 84.048 38.2729 81.4138 38.2729 78.1645C38.2729 74.9151 35.6388 72.281 32.3894 72.281C29.14 72.281 26.5059 74.9151 26.5059 78.1645C26.5059 81.4138 29.14 84.048 32.3894 84.048Z" fill="white"/>
<path opacity="0.5" d="M45.4614 28.8137H19.3181C18.4376 28.8137 17.7239 29.5275 17.7239 30.4079V35.2451C17.7239 36.1255 18.4376 36.8393 19.3181 36.8393H45.4614C46.3419 36.8393 47.0556 36.1255 47.0556 35.2451V30.4079C47.0556 29.5275 46.3419 28.8137 45.4614 28.8137Z" fill="white"/>
<path opacity="0.6" d="M90.6821 28.8137H64.5388C63.6583 28.8137 62.9446 29.5275 62.9446 30.4079V35.2451C62.9446 36.1255 63.6583 36.8393 64.5388 36.8393H90.6821C91.5626 36.8393 92.2763 36.1255 92.2763 35.2451V30.4079C92.2763 29.5275 91.5626 28.8137 90.6821 28.8137Z" fill="#302CFF"/>
<path opacity="0.5" d="M45.4614 40.217H19.3181C18.4376 40.217 17.7239 40.9308 17.7239 41.8112V46.6484C17.7239 47.5288 18.4376 48.2426 19.3181 48.2426H45.4614C46.3419 48.2426 47.0556 47.5288 47.0556 46.6484V41.8112C47.0556 40.9308 46.3419 40.217 45.4614 40.217Z" fill="white"/>
<path opacity="0.5" d="M45.4614 51.7438H19.3181C18.4376 51.7438 17.7239 52.4575 17.7239 53.338V58.1751C17.7239 59.0556 18.4376 59.7693 19.3181 59.7693H45.4614C46.3419 59.7693 47.0556 59.0556 47.0556 58.1751V53.338C47.0556 52.4575 46.3419 51.7438 45.4614 51.7438Z" fill="white"/>
<path opacity="0.6" d="M90.6821 40.217H64.5388C63.6583 40.217 62.9446 40.9308 62.9446 41.8112V46.6484C62.9446 47.5288 63.6583 48.2426 64.5388 48.2426H90.6821C91.5626 48.2426 92.2763 47.5288 92.2763 46.6484V41.8112C92.2763 40.9308 91.5626 40.217 90.6821 40.217Z" fill="#302CFF"/>
<path opacity="0.6" d="M90.6821 51.7438H64.5388C63.6583 51.7438 62.9446 52.4575 62.9446 53.338V58.1751C62.9446 59.0556 63.6583 59.7693 64.5388 59.7693H90.6821C91.5626 59.7693 92.2763 59.0556 92.2763 58.1751V53.338C92.2763 52.4575 91.5626 51.7438 90.6821 51.7438Z" fill="#302CFF"/>
<path opacity="0.1" d="M110 0H0V110H110V0Z" fill="#302CFF"/>
</g>
<defs>
<clipPath id="clip0_425_6">
<rect width="110" height="110" rx="15" fill="white"/>
</clipPath>
</defs>
</svg>
