<svg width="112" height="110" viewBox="0 0 112 110" fill="none" xmlns="http://www.w3.org/2000/svg">
<path d="M90.6618 0H20.6963C9.82859 0 1.01855 8.81004 1.01855 19.6778V89.6432C1.01855 100.511 9.82859 109.321 20.6963 109.321H90.6618C101.529 109.321 110.34 100.511 110.34 89.6432V19.6778C110.34 8.81004 101.529 0 90.6618 0Z" fill="#EAE9FF"/>
<path d="M75.3569 24.5972H26.1624C21.3323 24.5972 17.4167 28.5127 17.4167 33.3428V67.2324C17.4167 72.0625 21.3323 75.978 26.1624 75.978H75.3569C80.187 75.978 84.1025 72.0625 84.1025 67.2324V33.3428C84.1025 28.5127 80.187 24.5972 75.3569 24.5972Z" fill="#B6B4FF"/>
<path d="M26.1624 36.6225C27.9737 36.6225 29.4421 35.1541 29.4421 33.3429C29.4421 31.5316 27.9737 30.0632 26.1624 30.0632C24.3512 30.0632 22.8828 31.5316 22.8828 33.3429C22.8828 35.1541 24.3512 36.6225 26.1624 36.6225Z" fill="#3632FF"/>
<path d="M36.0013 36.6225C37.8126 36.6225 39.2809 35.1541 39.2809 33.3429C39.2809 31.5316 37.8126 30.0632 36.0013 30.0632C34.19 30.0632 32.7217 31.5316 32.7217 33.3429C32.7217 35.1541 34.19 36.6225 36.0013 36.6225Z" fill="#3632FF"/>
<path d="M45.8402 36.6225C47.6515 36.6225 49.1198 35.1541 49.1198 33.3429C49.1198 31.5316 47.6515 30.0632 45.8402 30.0632C44.0289 30.0632 42.5605 31.5316 42.5605 33.3429C42.5605 35.1541 44.0289 36.6225 45.8402 36.6225Z" fill="#3632FF"/>
<path d="M93.9415 62.8596C93.9415 50.7843 84.1526 40.9954 72.0773 40.9954C60.0021 40.9954 50.2131 50.7843 50.2131 62.8596C50.2131 74.9348 60.0021 84.7238 72.0773 84.7238C84.1526 84.7238 93.9415 74.9348 93.9415 62.8596Z" fill="#3632FF"/>
<path d="M85.0884 60.9487V64.7247L76.1848 67.8668V64.9543L83.0788 62.8688L76.1848 60.7833V57.8066L85.0884 60.9487Z" fill="white"/>
<path d="M74.9438 54.1409L71.7891 71.5783H69.2029L72.3576 54.1409H74.9438Z" fill="white"/>
<path d="M59.0662 64.7247V60.9487L67.9698 57.8066V60.7191L61.0759 62.8046L67.9698 64.8901V67.8668L59.0662 64.7247Z" fill="white"/>
</svg>
