<svg width="60" height="60" viewBox="0 0 60 60" fill="none" xmlns="http://www.w3.org/2000/svg">
<rect width="60" height="60" rx="15" fill="#EAE9FF"/>
<path opacity="0.4" d="M46.6665 36.5673C46.6665 41.2173 42.9332 44.984 38.2832 45.0007H38.2665H21.7498C17.1165 45.0007 13.3332 41.2507 13.3332 36.6006V36.584C13.3332 36.584 13.3432 29.2073 13.3565 25.4973C13.3582 24.8007 14.1582 24.4107 14.7032 24.844C18.6632 27.9857 25.7448 33.714 25.8332 33.789C27.0165 34.7373 28.5165 35.2723 30.0498 35.2723C31.5832 35.2723 33.0832 34.7373 34.2665 33.7706C34.3548 33.7123 41.2782 28.1557 45.2982 24.9623C45.8448 24.5273 46.6482 24.9173 46.6498 25.6123C46.6665 29.294 46.6665 36.5673 46.6665 36.5673Z" fill="#302CFF"/>
<path d="M45.7933 19.4562C44.35 16.7362 41.51 14.9995 38.3833 14.9995H21.75C18.6233 14.9995 15.7833 16.7362 14.34 19.4562C14.0167 20.0645 14.17 20.8228 14.7083 21.2528L27.0833 31.1512C27.95 31.8512 29 32.1995 30.05 32.1995C30.0567 32.1995 30.0617 32.1995 30.0667 32.1995C30.0717 32.1995 30.0783 32.1995 30.0833 32.1995C31.1333 32.1995 32.1833 31.8512 33.05 31.1512L45.425 21.2528C45.9633 20.8228 46.1167 20.0645 45.7933 19.4562Z" fill="#302CFF"/>
</svg>
