<svg width="110" height="110" viewBox="0 0 110 110" fill="none" xmlns="http://www.w3.org/2000/svg">
<g clip-path="url(#clip0_432_244)">
<path d="M90.2091 0H20.2437C9.37596 0 0.565918 8.81004 0.565918 19.6778V89.6432C0.565918 100.511 9.37596 109.321 20.2437 109.321H90.2091C101.077 109.321 109.887 100.511 109.887 89.6432V19.6778C109.887 8.81004 101.077 0 90.2091 0Z" fill="#EAE9FF"/>
<path d="M82.5566 15.3049H27.8961C23.066 15.3049 19.1504 19.2205 19.1504 24.0506V85.2704C19.1504 90.1005 23.066 94.016 27.8961 94.016H82.5566C87.3867 94.016 91.3022 90.1005 91.3022 85.2704V24.0506C91.3022 19.2205 87.3867 15.3049 82.5566 15.3049Z" fill="#B6B4FF"/>
<path d="M27.8961 27.3303C29.7074 27.3303 31.1757 25.8619 31.1757 24.0506C31.1757 22.2393 29.7074 20.771 27.8961 20.771C26.0848 20.771 24.6165 22.2393 24.6165 24.0506C24.6165 25.8619 26.0848 27.3303 27.8961 27.3303Z" fill="#3632FF"/>
<path d="M37.735 27.3303C39.5462 27.3303 41.0146 25.8619 41.0146 24.0506C41.0146 22.2393 39.5462 20.771 37.735 20.771C35.9237 20.771 34.4553 22.2393 34.4553 24.0506C34.4553 25.8619 35.9237 27.3303 37.735 27.3303Z" fill="#3632FF"/>
<path d="M47.5738 27.3303C49.3851 27.3303 50.8535 25.8619 50.8535 24.0506C50.8535 22.2393 49.3851 20.771 47.5738 20.771C45.7625 20.771 44.2942 22.2393 44.2942 24.0506C44.2942 25.8619 45.7625 27.3303 47.5738 27.3303Z" fill="#3632FF"/>
<path fill-rule="evenodd" clip-rule="evenodd" d="M58.3993 52.7483C57.7394 52.4741 56.9011 52.4741 55.2263 52.4741C53.5516 52.4741 52.715 52.4741 52.0533 52.7483C51.1748 53.1131 50.4755 53.8157 50.1091 54.7018C49.9415 55.1041 49.8773 55.5749 49.8505 56.2585C49.8386 56.7538 49.702 57.2379 49.4536 57.6649C49.2052 58.092 48.8531 58.4479 48.4307 58.699C48.0005 58.9409 47.5168 59.0691 47.0245 59.0715C46.5321 59.0741 46.0471 58.951 45.6145 58.7134C45.0116 58.3924 44.5746 58.2156 44.143 58.1579C43.1987 58.0325 42.2436 58.2892 41.4854 58.8722C40.9183 59.3088 40.4991 60.0375 39.6625 61.4932C38.8242 62.9488 38.4069 63.6757 38.3124 64.3882C38.1876 65.3371 38.4444 66.2966 39.0259 67.056C39.2897 67.4023 39.6625 67.6928 40.2387 68.0572C41.0894 68.5929 41.6352 69.5057 41.6352 70.5121C41.6352 71.5187 41.0894 72.4314 40.2405 72.9652C39.6625 73.3315 39.2897 73.6218 39.024 73.9681C38.737 74.3432 38.5264 74.7722 38.4042 75.23C38.2821 75.6879 38.2508 76.1658 38.3124 76.636C38.4069 77.3467 38.8242 78.0755 39.6625 79.5311C40.5008 80.9868 40.9183 81.7136 41.4854 82.152C42.2417 82.7346 43.1977 82.9908 44.143 82.8663C44.5746 82.8086 45.0116 82.6318 45.6145 82.3107C46.0474 82.0729 46.5326 81.9496 47.0253 81.9521C47.518 81.9547 48.002 82.083 48.4325 82.3251C49.2993 82.8302 49.8131 83.7592 49.8505 84.7656C49.8773 85.4512 49.9415 85.9201 50.1091 86.3223C50.4731 87.2063 51.1722 87.9097 52.0533 88.2759C52.7133 88.55 53.5516 88.55 55.2263 88.55C56.9011 88.55 57.7394 88.55 58.3993 88.2759C59.2778 87.9111 59.9772 87.2085 60.3435 86.3223C60.5112 85.9201 60.5754 85.4512 60.6022 84.7656C60.6377 83.7592 61.1532 82.8284 62.0218 82.3251C62.4522 82.0833 62.9359 81.9551 63.4282 81.9526C63.9205 81.95 64.4054 82.0732 64.8382 82.3107C65.4411 82.6318 65.8781 82.8086 66.3097 82.8663C67.255 82.9926 68.211 82.7346 68.9672 82.152C69.5344 81.7155 69.9535 80.9868 70.7901 79.5311C71.6284 78.0755 72.0457 77.3485 72.1403 76.636C72.2016 76.1657 72.1701 75.6878 72.0476 75.2299C71.9251 74.7719 71.7142 74.3431 71.4268 73.9681C71.1628 73.6218 70.7901 73.3315 70.214 72.9671C69.3632 72.4314 68.8174 71.5187 68.8174 70.5121C68.8174 69.5057 69.3632 68.5929 70.2122 68.0589C70.7901 67.6928 71.1628 67.4023 71.4286 67.056C71.7157 66.681 71.9263 66.2521 72.0484 65.7942C72.1706 65.3362 72.2019 64.8584 72.1403 64.3882C72.0457 63.6776 71.6284 62.9488 70.7901 61.4932C69.9518 60.0375 69.5344 59.3106 68.9672 58.8722C68.2091 58.2892 67.254 58.0325 66.3097 58.1579C65.8781 58.2156 65.4411 58.3924 64.8382 58.7134C64.4053 58.9512 63.92 59.0747 63.4273 59.0721C62.9347 59.0696 62.4506 58.9413 62.0201 58.699C61.5981 58.4477 61.2464 58.0917 60.9983 57.6646C60.7502 57.2377 60.6138 56.7537 60.6022 56.2585C60.5754 55.573 60.5112 55.1041 60.3435 54.7018C60.1622 54.263 59.8972 53.8646 59.5635 53.5294C59.23 53.1943 58.8344 52.9288 58.3993 52.7483ZM55.2263 75.9235C58.205 75.9235 60.6182 73.501 60.6182 70.5121C60.6182 67.5232 58.2032 65.1008 55.2263 65.1008C52.2477 65.1008 49.8345 67.5232 49.8345 70.5121C49.8345 73.501 52.2495 75.9235 55.2263 75.9235Z" fill="#3632FF"/>
<path fill-rule="evenodd" clip-rule="evenodd" d="M67.642 42.907C65.5008 40.9751 62.8425 39.575 59.9248 38.8426C57.0069 38.1102 53.9289 38.0704 50.9891 38.727C48.0492 39.3836 45.3474 40.7145 43.1458 42.5904C40.9442 44.4662 39.3173 46.8235 38.4232 49.4333C35.8214 50.2677 33.6297 51.9037 32.2348 54.053C30.8397 56.2025 30.3308 58.7271 30.7977 61.1818C31.2647 63.6366 32.6776 65.8638 34.7873 67.4707C36.897 69.0777 39.5678 69.9611 42.3291 69.9654H70.4467C72.7307 69.9664 74.9365 69.215 76.6496 67.8523C78.3628 66.4898 79.4652 64.61 79.7501 62.5659C80.0351 60.522 79.4825 58.4544 78.1966 56.7518C76.9107 55.0493 74.9795 53.829 72.7664 53.32C72.5538 49.3949 70.7268 45.6822 67.642 42.907Z" fill="white"/>
</g>
<defs>
<clipPath id="clip0_432_244">
<rect width="110" height="110" fill="white"/>
</clipPath>
</defs>
</svg>
