<svg width="90" height="90" viewBox="0 0 90 90" fill="none" xmlns="http://www.w3.org/2000/svg">
<g clip-path="url(#clip0_427_77)">
<rect width="90" height="90" rx="20" fill="white"/>
<path d="M90 0H0V90H90V0Z" fill="#302CFF" fill-opacity="0.1"/>
<path d="M71.0612 22.9336C70.5267 22.5699 69.904 22.3569 69.2588 22.317C68.6134 22.277 67.9693 22.4116 67.394 22.7067C64.4141 23.9178 61.2452 24.5976 58.0308 24.7151C54.3639 24.4452 50.7479 23.6984 47.2742 22.4934C39.6561 20.2694 37.0169 19.743 31.1757 20.4964C30.3551 20.6035 29.6016 21.0057 29.0561 21.6281C28.5106 22.2504 28.2105 23.0501 28.2119 23.8777V57.9628C28.212 58.4427 28.3136 58.9173 28.5099 59.3552C28.7062 59.7932 28.9929 60.1846 29.3512 60.5039C29.7095 60.8232 30.1314 61.0631 30.5889 61.208C31.0465 61.3527 31.5295 61.3992 32.0062 61.3441C37.1236 60.7564 39.5064 61.2556 46.6252 63.3389C50.3071 64.6147 54.1428 65.3939 58.0308 65.6558C62.0026 65.5085 65.9121 64.6219 69.559 63.0415C71.0839 62.4607 72.4636 61.68 72.4636 59.574V25.7158C72.4682 25.1739 72.3434 24.6387 72.0994 24.1549C71.8555 23.671 71.4996 23.2522 71.0612 22.9336Z" fill="#302CFF"/>
<path opacity="0.28" d="M21.404 18C20.5012 18 19.6354 18.3586 18.997 18.997C18.3586 19.6354 18 20.5012 18 21.404V69.0596C18 69.9624 18.3586 70.8283 18.997 71.4667C19.6354 72.105 20.5012 72.4637 21.404 72.4637C22.3068 72.4637 23.1726 72.105 23.8109 71.4667C24.4493 70.8283 24.8079 69.9624 24.8079 69.0596V21.404C24.8079 20.5012 24.4493 19.6354 23.8109 18.997C23.1726 18.3586 22.3068 18 21.404 18Z" fill="#302CFF"/>
</g>
<defs>
<clipPath id="clip0_427_77">
<rect width="90" height="90" rx="20" fill="white"/>
</clipPath>
</defs>
</svg>
