<svg width="90" height="90" viewBox="0 0 90 90" fill="none" xmlns="http://www.w3.org/2000/svg">
<g clip-path="url(#clip0_427_41)">
<rect width="90" height="90" rx="20" fill="white"/>
<path d="M90 0H0V90H90V0Z" fill="#302CFF" fill-opacity="0.1"/>
<path opacity="0.3" d="M50.1895 70.7894H40.0587C39.8284 70.7894 39.6018 70.8484 39.4007 70.9606C39.1996 71.0728 39.0304 71.2346 38.9094 71.4307C38.7884 71.6266 38.7195 71.8503 38.7093 72.0805C38.6991 72.3105 38.7479 72.5395 38.8511 72.7454L39.7589 74.5581C40.2045 75.4563 40.8925 76.212 41.7452 76.7395C42.5979 77.267 43.5812 77.5455 44.5838 77.5433H45.6644C46.6661 77.5469 47.6489 77.2706 48.5019 76.7455C49.3549 76.2205 50.0442 75.4675 50.4921 74.5717L51.3999 72.7588C51.5032 72.5528 51.552 72.3236 51.5417 72.0933C51.5314 71.8629 51.4622 71.639 51.3409 71.4429C51.2196 71.2468 51.05 71.0852 50.8486 70.9731C50.6471 70.8611 50.4201 70.8025 50.1895 70.803V70.7894Z" fill="#302CFF"/>
<path opacity="0.3" d="M45.1249 24.8629C45.8414 24.8629 46.5286 24.5783 47.0352 24.0717C47.5418 23.565 47.8265 22.8779 47.8265 22.1614V15.4075C47.8265 14.691 47.5418 14.0038 47.0352 13.4972C46.5286 12.9905 45.8414 12.7059 45.1249 12.7059C44.4084 12.7059 43.7212 12.9905 43.2146 13.4972C42.708 14.0038 42.4233 14.691 42.4233 15.4075V22.1614C42.4233 22.8779 42.708 23.565 43.2146 24.0717C43.7212 24.5783 44.4084 24.8629 45.1249 24.8629Z" fill="#302CFF"/>
<path opacity="0.3" d="M69.9565 22.9934C69.4499 22.487 68.7628 22.2024 68.0465 22.2024C67.3301 22.2024 66.6432 22.487 66.1365 22.9934L61.3628 27.7698C61.1048 28.019 60.899 28.3171 60.7574 28.6467C60.6158 28.9763 60.5413 29.3308 60.5382 29.6895C60.5351 30.0482 60.6034 30.4039 60.7393 30.736C60.8751 31.068 61.0757 31.3696 61.3293 31.6233C61.583 31.877 61.8847 32.0775 62.2166 32.2134C62.5487 32.3492 62.9044 32.4176 63.2631 32.4144C63.6218 32.4114 63.9763 32.3368 64.3059 32.1953C64.6355 32.0536 64.9337 31.8479 65.1828 31.5898L69.9565 26.8135C70.463 26.3068 70.7475 25.6197 70.7475 24.9034C70.7475 24.187 70.463 23.5001 69.9565 22.9934Z" fill="#302CFF"/>
<path opacity="0.3" d="M74.8415 45.1246H69.4384C68.7219 45.1246 68.0347 45.4092 67.5281 45.9159C67.0214 46.4225 66.7368 47.1097 66.7368 47.8262C66.7368 48.5427 67.0214 49.2299 67.5281 49.7364C68.0347 50.2431 68.7219 50.5278 69.4384 50.5278H74.8415C75.558 50.5278 76.2452 50.2431 76.7518 49.7364C77.2585 49.2299 77.5431 48.5427 77.5431 47.8262C77.5431 47.1097 77.2585 46.4225 76.7518 45.9159C76.2452 45.4092 75.558 45.1246 74.8415 45.1246Z" fill="#302CFF"/>
<path opacity="0.3" d="M28.888 27.7698L24.1117 22.9934C23.602 22.5013 22.9196 22.2291 22.2113 22.2352C21.503 22.2414 20.8254 22.5254 20.3246 23.0264C19.8236 23.5273 19.5396 24.2048 19.5333 24.9132C19.5272 25.6215 19.7995 26.3039 20.2916 26.8135L25.068 31.5898C25.5775 32.082 26.2599 32.3543 26.9683 32.348C27.6766 32.3419 28.3542 32.0578 28.8551 31.5569C29.3559 31.0561 29.6401 30.3784 29.6462 29.6701C29.6524 28.9617 29.38 28.2793 28.888 27.7698Z" fill="#302CFF"/>
<path opacity="0.3" d="M20.8107 45.1246H15.4076C14.6911 45.1246 14.004 45.4092 13.4973 45.9159C12.9907 46.4225 12.7061 47.1097 12.7061 47.8262C12.7061 48.5427 12.9907 49.2299 13.4973 49.7364C14.004 50.2431 14.6911 50.5278 15.4076 50.5278H20.8107C21.5272 50.5278 22.2144 50.2431 22.721 49.7364C23.2277 49.2299 23.5123 48.5427 23.5123 47.8262C23.5123 47.1097 23.2277 46.4225 22.721 45.9159C22.2144 45.4092 21.5272 45.1246 20.8107 45.1246Z" fill="#302CFF"/>
<path d="M45.1245 28.9152C41.3912 28.9208 37.7567 30.116 34.7488 32.3273C31.741 34.5388 29.5162 37.6512 28.3974 41.213C27.2786 44.7748 27.324 48.6003 28.5272 52.1344C29.7303 55.6686 32.0285 58.7273 35.0882 60.8665C35.2674 60.991 35.414 61.1569 35.5151 61.3503C35.6162 61.5437 35.6691 61.7587 35.669 61.9769V64.0355C35.669 64.752 35.9536 65.4392 36.4602 65.9458C36.9669 66.4524 37.654 66.7371 38.3705 66.7371H51.8784C52.5949 66.7371 53.282 66.4524 53.7886 65.9458C54.2952 65.4392 54.5799 64.752 54.5799 64.0355V61.9742C54.5799 61.756 54.6326 61.541 54.7338 61.3476C54.8349 61.1542 54.9815 60.9882 55.1607 60.8639C58.228 58.7291 60.5337 55.6708 61.7418 52.1344C62.95 48.5981 62.9975 44.7684 61.8776 41.2031C60.7576 37.6379 58.5285 34.5233 55.5152 32.313C52.5018 30.1028 48.8615 28.9124 45.1245 28.9152Z" fill="#302CFF"/>
</g>
<defs>
<clipPath id="clip0_427_41">
<rect width="90" height="90" rx="20" fill="white"/>
</clipPath>
</defs>
</svg>
