<svg width="110" height="110" viewBox="0 0 110 110" fill="none" xmlns="http://www.w3.org/2000/svg">
<g clip-path="url(#clip0_432_216)">
<path d="M89.7562 0H19.7908C8.92308 0 0.113037 8.81004 0.113037 19.6778V89.6432C0.113037 100.511 8.92308 109.321 19.7908 109.321H89.7562C100.624 109.321 109.434 100.511 109.434 89.6432V19.6778C109.434 8.81004 100.624 0 89.7562 0Z" fill="#EAE9FF"/>
<g filter="url(#filter0_d_432_216)">
<path d="M60.0809 12.2274H29.4149C26.4609 12.2274 24.0662 14.6221 24.0662 17.5761V91.7449C24.0662 94.699 26.4609 97.0936 29.4149 97.0936H60.0809C63.0349 97.0936 65.4296 94.699 65.4296 91.7449V17.5761C65.4296 14.6221 63.0349 12.2274 60.0809 12.2274Z" fill="#3632FF"/>
<path d="M60.0806 14.0101H29.4147C27.4453 14.0101 25.8489 15.6066 25.8489 17.5759V91.7447C25.8489 93.714 27.4453 95.3104 29.4147 95.3104H60.0806C62.0499 95.3104 63.6464 93.714 63.6464 91.7447V17.5759C63.6464 15.6066 62.0499 14.0101 60.0806 14.0101Z" fill="#E8E8FF"/>
<path d="M34.7637 14.01H54.7322V14.5449C54.7322 15.5296 53.934 16.3279 52.9494 16.3279H36.5466C35.5619 16.3279 34.7637 15.5296 34.7637 14.5449V14.01Z" fill="#3632FF"/>
<path d="M60.0809 20.2502H29.415C28.4303 20.2502 27.6321 21.0485 27.6321 22.0331V36.4746C27.6321 37.4593 28.4303 38.2575 29.415 38.2575H60.0809C61.0656 38.2575 61.8638 37.4593 61.8638 36.4746V22.0331C61.8638 21.0485 61.0656 20.2502 60.0809 20.2502Z" fill="#6360FF"/>
<path d="M60.1701 40.9318H29.3258C28.3904 40.9318 27.6321 41.6901 27.6321 42.6255C27.6321 43.561 28.3904 44.3193 29.3258 44.3193H60.1701C61.1055 44.3193 61.8638 43.561 61.8638 42.6255C61.8638 41.6901 61.1055 40.9318 60.1701 40.9318Z" fill="#717197"/>
<path d="M44.7482 46.1023H28.7021C28.1113 46.1023 27.6323 46.5812 27.6323 47.172C27.6323 47.7628 28.1113 48.2418 28.7021 48.2418H44.7482C45.339 48.2418 45.8179 47.7628 45.8179 47.172C45.8179 46.5812 45.339 46.1023 44.7482 46.1023Z" fill="#CDCDFF"/>
<path d="M51.3449 50.0247H28.7021C28.1113 50.0247 27.6323 50.5036 27.6323 51.0944V51.0944C27.6323 51.6852 28.1113 52.1641 28.7021 52.1641H51.3449C51.9357 52.1641 52.4146 51.6852 52.4146 51.0944C52.4146 50.5036 51.9357 50.0247 51.3449 50.0247Z" fill="#9997FF"/>
<path d="M41.2713 54.8386H30.2173C28.7895 54.8386 27.6321 55.9961 27.6321 57.4238V57.4238C27.6321 58.8516 28.7895 60.009 30.2173 60.009H41.2713C42.6991 60.009 43.8565 58.8516 43.8565 57.4238C43.8565 55.9961 42.6991 54.8386 41.2713 54.8386Z" fill="#6360FF"/>
<path d="M60.0809 63.5748H29.415C28.4303 63.5748 27.6321 64.3731 27.6321 65.3577V91.7447C27.6321 92.7293 28.4303 93.5276 29.415 93.5276H60.0809C61.0656 93.5276 61.8638 92.7293 61.8638 91.7447V65.3577C61.8638 64.3731 61.0656 63.5748 60.0809 63.5748Z" fill="#CCCBFF"/>
<path d="M49.7399 78.5512C49.7399 75.7941 47.5048 73.5591 44.7477 73.5591C41.9907 73.5591 39.7556 75.7941 39.7556 78.5512C39.7556 81.3083 41.9907 83.5433 44.7477 83.5433C47.5048 83.5433 49.7399 81.3083 49.7399 78.5512Z" fill="#6360FF"/>
<path d="M46.4862 77.9717H45.3274V76.8129C45.3274 76.6591 45.2663 76.5118 45.1576 76.4032C45.049 76.2945 44.9015 76.2334 44.7479 76.2334C44.5942 76.2334 44.4468 76.2945 44.3382 76.4032C44.2296 76.5118 44.1684 76.6591 44.1684 76.8129L44.189 77.9717H43.0095C42.8559 77.9717 42.7084 78.0328 42.5998 78.1414C42.4912 78.2501 42.4302 78.3975 42.4302 78.5511C42.4302 78.7049 42.4912 78.8522 42.5998 78.9609C42.7084 79.0695 42.8559 79.1306 43.0095 79.1306L44.189 79.1101L44.1684 80.2895C44.1684 80.4431 44.2296 80.5906 44.3382 80.6993C44.4468 80.8079 44.5942 80.8689 44.7479 80.8689C44.9015 80.8689 45.049 80.8079 45.1576 80.6993C45.2663 80.5906 45.3274 80.4431 45.3274 80.2895V79.1101L46.4862 79.1306C46.6399 79.1306 46.7873 79.0695 46.8959 78.9609C47.0047 78.8522 47.0657 78.7049 47.0657 78.5511C47.0657 78.3975 47.0047 78.2501 46.8959 78.1414C46.7873 78.0328 46.6399 77.9717 46.4862 77.9717Z" fill="white"/>
</g>
<g filter="url(#filter1_d_432_216)">
<path d="M81.8603 51.6129H52.6523C50.6526 51.6129 49.0315 53.234 49.0315 55.2337V82.5106C49.0315 84.5104 50.6526 86.1315 52.6523 86.1315H81.8603C83.86 86.1315 85.4812 84.5104 85.4812 82.5106V55.2337C85.4812 53.234 83.86 51.6129 81.8603 51.6129Z" fill="#3632FF"/>
<path d="M75.0615 66.0963C75.0615 61.7858 71.5671 58.2914 67.2566 58.2914C62.946 58.2914 59.4517 61.7858 59.4517 66.0963C59.4517 70.4068 62.946 73.9012 67.2566 73.9012C71.5671 73.9012 75.0615 70.4068 75.0615 66.0963Z" fill="#CCCBFF"/>
<path d="M80.0497 76.3151H54.4626C53.596 76.3151 52.8936 77.0175 52.8936 77.8841V77.8841C52.8936 78.7506 53.596 79.4531 54.4626 79.4531H80.0497C80.9163 79.4531 81.6188 78.7506 81.6188 77.8841V77.8841C81.6188 77.0175 80.9163 76.3151 80.0497 76.3151Z" fill="#9997FF"/>
</g>
</g>
<defs>
<filter id="filter0_d_432_216" x="21.5336" y="9.88242" width="46.4285" height="89.9314" filterUnits="userSpaceOnUse" color-interpolation-filters="sRGB">
<feFlood flood-opacity="0" result="BackgroundImageFix"/>
<feColorMatrix in="SourceAlpha" type="matrix" values="0 0 0 0 0 0 0 0 0 0 0 0 0 0 0 0 0 0 127 0" result="hardAlpha"/>
<feOffset dy="0.1876"/>
<feGaussianBlur stdDeviation="1.2663"/>
<feComposite in2="hardAlpha" operator="out"/>
<feColorMatrix type="matrix" values="0 0 0 0 0.211765 0 0 0 0 0.196078 0 0 0 0 1 0 0 0 0.1 0"/>
<feBlend mode="normal" in2="BackgroundImageFix" result="effect1_dropShadow_432_216"/>
<feBlend mode="normal" in="SourceGraphic" in2="effect1_dropShadow_432_216" result="shape"/>
</filter>
<filter id="filter1_d_432_216" x="46.6319" y="49.391" width="41.2489" height="39.3178" filterUnits="userSpaceOnUse" color-interpolation-filters="sRGB">
<feFlood flood-opacity="0" result="BackgroundImageFix"/>
<feColorMatrix in="SourceAlpha" type="matrix" values="0 0 0 0 0 0 0 0 0 0 0 0 0 0 0 0 0 0 127 0" result="hardAlpha"/>
<feOffset dy="0.17775"/>
<feGaussianBlur stdDeviation="1.19981"/>
<feComposite in2="hardAlpha" operator="out"/>
<feColorMatrix type="matrix" values="0 0 0 0 0.211765 0 0 0 0 0.196078 0 0 0 0 1 0 0 0 0.1 0"/>
<feBlend mode="normal" in2="BackgroundImageFix" result="effect1_dropShadow_432_216"/>
<feBlend mode="normal" in="SourceGraphic" in2="effect1_dropShadow_432_216" result="shape"/>
</filter>
<clipPath id="clip0_432_216">
<rect width="110" height="110" fill="white"/>
</clipPath>
</defs>
</svg>
