<svg width="32" height="32" viewBox="0 0 32 32" fill="none" xmlns="http://www.w3.org/2000/svg">
<rect width="32" height="32" rx="16" fill="white"/>
<path d="M17.7921 7H14.4953C14.1599 7 13.8879 7.27193 13.8879 7.60736V25.0593C13.8879 25.3947 14.1599 25.6666 14.4953 25.6666H17.7921C18.1275 25.6666 18.3994 25.3947 18.3994 25.0593V7.60736C18.3994 7.27193 18.1275 7 17.7921 7Z" fill="#302CFF"/>
<path d="M24.4523 25.6667C26.5703 25.6667 28.2872 23.9498 28.2872 21.8318C28.2872 19.7138 26.5703 17.9968 24.4523 17.9968C22.3344 17.9968 20.6174 19.7138 20.6174 21.8318C20.6174 23.9498 22.3344 25.6667 24.4523 25.6667Z" fill="#302CFF"/>
<path d="M24.4523 14.6698C26.5703 14.6698 28.2872 12.9529 28.2872 10.8349C28.2872 8.71695 26.5703 7 24.4523 7C22.3344 7 20.6174 8.71695 20.6174 10.8349C20.6174 12.9529 22.3344 14.6698 24.4523 14.6698Z" fill="#070721"/>
<path d="M7.83493 25.6667C9.9529 25.6667 11.6699 23.9498 11.6699 21.8318C11.6699 19.7138 9.9529 17.9968 7.83493 17.9968C5.71696 17.9968 4 19.7138 4 21.8318C4 23.9498 5.71696 25.6667 7.83493 25.6667Z" fill="#070721"/>
</svg>
