<svg width="61" height="60" viewBox="0 0 61 60" fill="none" xmlns="http://www.w3.org/2000/svg">
<g clip-path="url(#clip0_147_1544)">
<path opacity="0.1" d="M60.667 0H0.666992V60H60.667V0Z" fill="#302CFF"/>
<path opacity="0.4" d="M25.3464 35.719C17.4139 35.719 10.6387 36.9443 10.6387 41.842C10.6387 46.7435 17.3708 48.0112 25.3464 48.0112C33.279 48.0112 40.0543 46.7857 40.0543 41.8881C40.0543 36.9865 33.3221 35.719 25.3464 35.719Z" fill="#302CFF"/>
<path d="M25.3463 31.05C30.7489 31.05 35.0785 26.8101 35.0785 21.5193C35.0785 16.2285 30.7489 11.9885 25.3463 11.9885C19.9458 11.9885 15.6143 16.2285 15.6143 21.5193C15.6143 26.8101 19.9458 31.05 25.3463 31.05Z" fill="#302CFF"/>
<path d="M39.0035 21.6925C39.0035 24.3868 38.1771 26.9008 36.728 28.9892C36.5773 29.204 36.7104 29.4935 36.9728 29.5395C37.337 29.599 37.7111 29.6354 38.0929 29.6431C41.8917 29.7409 45.3009 27.3457 46.2428 23.7386C47.6389 18.3865 43.5425 13.5808 38.324 13.5808C37.758 13.5808 37.2156 13.6383 36.6869 13.7438C36.6145 13.7592 36.5361 13.7937 36.4969 13.855C36.446 13.9337 36.4832 14.0353 36.5342 14.1024C38.1027 16.256 39.0035 18.8774 39.0035 21.6925Z" fill="#302CFF"/>
<path opacity="0.4" d="M50.2219 36.3427C49.5268 34.891 47.8486 33.8957 45.2952 33.4067C44.0909 33.1191 40.8286 32.7106 37.7954 32.7682C37.7503 32.7739 37.7249 32.8046 37.721 32.8238C37.7151 32.8544 37.7288 32.9005 37.7875 32.9331C39.1896 33.6119 44.6078 36.5651 43.9264 42.7937C43.897 43.0659 44.1183 43.2961 44.3944 43.2577C45.7279 43.0717 49.1587 42.3488 50.2219 40.1012C50.8113 38.9123 50.8113 37.5316 50.2219 36.3427Z" fill="#302CFF"/>
</g>
<defs>
<clipPath id="clip0_147_1544">
<rect x="0.666992" width="60" height="60" rx="15" fill="white"/>
</clipPath>
</defs>
</svg>
