<svg width="60" height="60" viewBox="0 0 60 60" fill="none" xmlns="http://www.w3.org/2000/svg">
<g clip-path="url(#clip0_147_1430)">
<path opacity="0.1" d="M60 0H0V60H60V0Z" fill="#302CFF"/>
<path d="M18.4362 25.1859C19.7456 25.1859 20.807 24.1245 20.807 22.8151C20.807 21.5058 19.7456 20.4443 18.4362 20.4443C17.1269 20.4443 16.0654 21.5058 16.0654 22.8151C16.0654 24.1245 17.1269 25.1859 18.4362 25.1859Z" fill="#A09EFF"/>
<path d="M24.7878 25.1859C26.0972 25.1859 27.1586 24.1245 27.1586 22.8151C27.1586 21.5058 26.0972 20.4443 24.7878 20.4443C23.4784 20.4443 22.417 21.5058 22.417 22.8151C22.417 24.1245 23.4784 25.1859 24.7878 25.1859Z" fill="#A09EFF"/>
<path d="M24.7878 35.9108C26.0972 35.9108 27.1586 34.8494 27.1586 33.54C27.1586 32.2306 26.0972 31.1692 24.7878 31.1692C23.4784 31.1692 22.417 32.2306 22.417 33.54C22.417 34.8494 23.4784 35.9108 24.7878 35.9108Z" fill="#F3F2FF"/>
<path d="M18.4362 35.9108C19.7456 35.9108 20.807 34.8494 20.807 33.54C20.807 32.2306 19.7456 31.1692 18.4362 31.1692C17.1269 31.1692 16.0654 32.2306 16.0654 33.54C16.0654 34.8494 17.1269 35.9108 18.4362 35.9108Z" fill="#F3F2FF"/>
<path d="M18.4362 46.9362C19.7456 46.9362 20.807 45.8747 20.807 44.5654C20.807 43.256 19.7456 42.1946 18.4362 42.1946C17.1269 42.1946 16.0654 43.256 16.0654 44.5654C16.0654 45.8747 17.1269 46.9362 18.4362 46.9362Z" fill="#A09EFF"/>
<path d="M24.7878 46.9362C26.0972 46.9362 27.1586 45.8747 27.1586 44.5654C27.1586 43.256 26.0972 42.1946 24.7878 42.1946C23.4784 42.1946 22.417 43.256 22.417 44.5654C22.417 45.8747 23.4784 46.9362 24.7878 46.9362Z" fill="#A09EFF"/>
<path d="M46.537 18.1831H13.4612C12.8346 18.1831 12.2337 18.4321 11.7906 18.8751C11.3475 19.3182 11.0986 19.9191 11.0986 20.5457V24.4832C11.0986 25.1099 11.3475 25.7108 11.7906 26.1539C12.2337 26.5969 12.8346 26.8458 13.4612 26.8458H46.537C47.1636 26.8458 47.7645 26.5969 48.2076 26.1539C48.6506 25.7108 48.8996 25.1099 48.8996 24.4832V20.5457C48.8996 19.9191 48.6506 19.3182 48.2076 18.8751C47.7645 18.4321 47.1636 18.1831 46.537 18.1831ZM16.2176 22.5145C16.2176 22.1251 16.333 21.7444 16.5493 21.4207C16.7657 21.0969 17.0732 20.8446 17.4329 20.6956C17.7927 20.5465 18.1885 20.5076 18.5704 20.5835C18.9523 20.6595 19.3031 20.847 19.5785 21.1223C19.8538 21.3977 20.0413 21.7485 20.1173 22.1304C20.1932 22.5123 20.1543 22.9081 20.0052 23.2679C19.8562 23.6276 19.6039 23.9351 19.2801 24.1515C18.9564 24.3678 18.5757 24.4832 18.1863 24.4832C17.6643 24.4829 17.1638 24.2753 16.7946 23.9062C16.4255 23.537 16.2179 23.0365 16.2176 22.5145ZM24.4865 24.4832C24.097 24.4832 23.7164 24.3678 23.3926 24.1515C23.0689 23.9351 22.8166 23.6276 22.6676 23.2679C22.5185 22.9081 22.4795 22.5123 22.5555 22.1304C22.6315 21.7485 22.819 21.3977 23.0943 21.1223C23.3696 20.847 23.7204 20.6595 24.1024 20.5835C24.4843 20.5076 24.8801 20.5465 25.2399 20.6956C25.5996 20.8446 25.9071 21.0969 26.1235 21.4207C26.3398 21.7444 26.4552 22.1251 26.4552 22.5145C26.4544 23.0364 26.2467 23.5367 25.8777 23.9057C25.5087 24.2747 25.0083 24.4825 24.4865 24.4832Z" fill="#302CFF"/>
<path opacity="0.4" d="M46.8903 14.3277L40.7556 11.2611C40.5363 11.1549 40.2952 11.1009 40.0515 11.1036H19.9478C19.7034 11.1033 19.4624 11.16 19.2438 11.269L13.1011 14.3356C12.9454 14.4171 12.8214 14.5483 12.7489 14.7085C12.6763 14.8686 12.6595 15.0484 12.7009 15.2192C12.7424 15.3899 12.8399 15.542 12.9777 15.651C13.1156 15.76 13.286 15.8198 13.4618 15.8208H46.5375C46.7154 15.8215 46.8884 15.7619 47.0281 15.6518C47.1678 15.5417 47.2662 15.3875 47.3071 15.2144C47.348 15.0412 47.3291 14.8594 47.2534 14.6984C47.1777 14.5373 47.0497 14.4067 46.8903 14.3277Z" fill="#302CFF"/>
<path d="M46.537 29.2085H13.4612C12.8346 29.2085 12.2337 29.4574 11.7906 29.9005C11.3475 30.3436 11.0986 30.9445 11.0986 31.571V35.5086C11.0986 36.1353 11.3475 36.7362 11.7906 37.1792C12.2337 37.6223 12.8346 37.8712 13.4612 37.8712H46.537C47.1636 37.8712 47.7645 37.6223 48.2076 37.1792C48.6506 36.7362 48.8996 36.1353 48.8996 35.5086V31.571C48.8996 30.9445 48.6506 30.3436 48.2076 29.9005C47.7645 29.4574 47.1636 29.2085 46.537 29.2085ZM16.2176 33.5399C16.2176 33.1504 16.333 32.7698 16.5493 32.446C16.7657 32.1222 17.0732 31.8699 17.4329 31.7209C17.7927 31.5719 18.1885 31.5329 18.5704 31.6089C18.9523 31.6848 19.3031 31.8724 19.5785 32.1477C19.8538 32.423 20.0413 32.7738 20.1173 33.1557C20.1932 33.5377 20.1543 33.9335 20.0052 34.2932C19.8562 34.653 19.6039 34.9605 19.2801 35.1768C18.9564 35.3932 18.5757 35.5086 18.1863 35.5086C17.6643 35.5082 17.1638 35.3007 16.7946 34.9315C16.4255 34.5624 16.2179 34.0619 16.2176 33.5399ZM24.4865 35.5086C24.097 35.5086 23.7164 35.3932 23.3926 35.1768C23.0689 34.9605 22.8166 34.653 22.6676 34.2932C22.5185 33.9335 22.4795 33.5377 22.5555 33.1557C22.6315 32.7738 22.819 32.423 23.0943 32.1477C23.3696 31.8724 23.7204 31.6848 24.1024 31.6089C24.4843 31.5329 24.8801 31.5719 25.2399 31.7209C25.5996 31.8699 25.9071 32.1222 26.1235 32.446C26.3398 32.7698 26.4552 33.1504 26.4552 33.5399C26.4544 34.0617 26.2467 34.5621 25.8777 34.9311C25.5087 35.3001 25.0083 35.5078 24.4865 35.5086Z" fill="#302CFF"/>
<path d="M46.537 40.2336H13.4612C12.8346 40.2336 12.2337 40.4826 11.7906 40.9256C11.3475 41.3687 11.0986 41.9696 11.0986 42.5962V46.5338C11.0986 47.1604 11.3475 47.7613 11.7906 48.2044C12.2337 48.6475 12.8346 48.8964 13.4612 48.8964H46.537C47.1636 48.8964 47.7645 48.6475 48.2076 48.2044C48.6506 47.7613 48.8996 47.1604 48.8996 46.5338V42.5962C48.8996 41.9696 48.6506 41.3687 48.2076 40.9256C47.7645 40.4826 47.1636 40.2336 46.537 40.2336ZM16.2176 44.565C16.2176 44.1756 16.333 43.795 16.5493 43.4712C16.7657 43.1475 17.0732 42.8951 17.4329 42.7461C17.7927 42.5971 18.1885 42.5581 18.5704 42.6341C18.9523 42.71 19.3031 42.8975 19.5785 43.1729C19.8538 43.4482 20.0413 43.799 20.1173 44.1809C20.1932 44.5628 20.1543 44.9587 20.0052 45.3185C19.8562 45.6782 19.6039 45.9857 19.2801 46.202C18.9564 46.4184 18.5757 46.5338 18.1863 46.5338C17.6643 46.5334 17.1638 46.3258 16.7946 45.9567C16.4255 45.5875 16.2179 45.087 16.2176 44.565ZM24.4865 46.5338C24.097 46.5338 23.7164 46.4184 23.3926 46.202C23.0689 45.9857 22.8166 45.6782 22.6676 45.3185C22.5185 44.9587 22.4795 44.5628 22.5555 44.1809C22.6315 43.799 22.819 43.4482 23.0943 43.1729C23.3696 42.8975 23.7204 42.71 24.1024 42.6341C24.4843 42.5581 24.8801 42.5971 25.2399 42.7461C25.5996 42.8951 25.9071 43.1475 26.1235 43.4712C26.3398 43.795 26.4552 44.1756 26.4552 44.565C26.4544 45.0869 26.2467 45.5872 25.8777 45.9562C25.5087 46.3253 25.0083 46.533 24.4865 46.5338Z" fill="#302CFF"/>
</g>
<defs>
<clipPath id="clip0_147_1430">
<rect width="60" height="60" rx="15" fill="white"/>
</clipPath>
</defs>
</svg>
