<svg width="61" height="60" viewBox="0 0 61 60" fill="none" xmlns="http://www.w3.org/2000/svg">
<g clip-path="url(#clip0_147_1415)">
<path opacity="0.1" d="M60.334 0H0.333984V60H60.334V0Z" fill="#302CFF"/>
<path d="M51.5441 24.7651C51.4728 24.5151 51.3075 24.3024 51.083 24.1714L48.9716 22.9446C49.2905 21.5311 49.2905 20.0643 48.9716 18.6507L51.0514 17.4317C51.1638 17.3664 51.2623 17.2796 51.3411 17.1762C51.4201 17.0729 51.4777 16.9549 51.511 16.8293C51.5443 16.7035 51.5524 16.5725 51.5351 16.4436C51.5176 16.3147 51.475 16.1906 51.4095 16.0783L49.4031 12.6411C49.2706 12.4179 49.0557 12.2556 48.8048 12.1894C48.5538 12.1231 48.2868 12.1582 48.0614 12.2869L45.8749 13.5236C44.8578 12.4176 43.5181 11.6602 42.046 11.3589V8.92296C42.046 8.66058 41.9417 8.40893 41.7562 8.22336C41.5706 8.03785 41.319 7.93359 41.0566 7.93359H37.099C36.8366 7.93359 36.585 8.03785 36.3994 8.22336C36.2139 8.40893 36.1096 8.66058 36.1096 8.92296V11.3569C34.6381 11.6565 33.298 12.411 32.2787 13.5137L30.0942 12.2869C29.8676 12.159 29.5997 12.1255 29.3486 12.1937C29.0975 12.2618 28.8834 12.4261 28.7525 12.651L26.746 16.0803C26.6806 16.1926 26.6379 16.3167 26.6205 16.4456C26.6031 16.5745 26.6113 16.7055 26.6446 16.8312C26.6778 16.9569 26.7356 17.0748 26.8144 17.1782C26.8933 17.2816 26.9917 17.3684 27.1042 17.4337L29.1997 18.6507C28.88 20.0641 28.88 21.5311 29.1997 22.9446L27.0824 24.1635C26.9696 24.2285 26.8708 24.3151 26.7915 24.4183C26.7123 24.5215 26.6542 24.6394 26.6205 24.7651C26.5869 24.8909 26.5784 25.022 26.5955 25.1511C26.6126 25.28 26.655 25.4044 26.7203 25.5171L28.6991 28.9561C28.8289 29.181 29.0419 29.3458 29.2921 29.415C29.5424 29.4843 29.8098 29.4523 30.0368 29.3261L32.2767 28.0815C33.2972 29.1839 34.6378 29.9383 36.1096 30.2384V32.6683C36.1096 32.9307 36.2139 33.1824 36.3994 33.3679C36.585 33.5535 36.8366 33.6577 37.099 33.6577H41.0566C41.319 33.6577 41.5706 33.5535 41.7562 33.3679C41.9417 33.1824 42.046 32.9307 42.046 32.6683V30.2384C43.5174 29.9388 44.8576 29.1843 45.8768 28.0815L48.1188 29.3261C48.3457 29.4523 48.6132 29.4843 48.8634 29.415C49.1137 29.3458 49.3266 29.181 49.4565 28.9561L51.4352 25.5171C51.502 25.405 51.5461 25.2809 51.5647 25.1519C51.5834 25.0229 51.5764 24.8914 51.5441 24.7651ZM39.0778 25.7426C38.0994 25.7426 37.143 25.4525 36.3294 24.9089C35.5159 24.3653 34.8818 23.5927 34.5074 22.6888C34.133 21.7848 34.035 20.7902 34.2259 19.8305C34.4168 18.871 34.8879 17.9895 35.5798 17.2976C36.2716 16.6058 37.1531 16.1347 38.1127 15.9437C39.0723 15.7529 40.0669 15.8508 40.9709 16.2252C41.8748 16.5997 42.6474 17.2337 43.191 18.0473C43.7346 18.8608 44.0247 19.8173 44.0247 20.7957C44.0247 22.1076 43.5035 23.3659 42.5758 24.2937C41.648 25.2214 40.3898 25.7426 39.0778 25.7426Z" fill="#302CFF"/>
<path opacity="0.4" d="M33.5899 42.568L31.4825 41.3531C31.8013 39.9395 31.8013 38.4726 31.4825 37.0591L33.578 35.8422C33.6905 35.7769 33.7889 35.69 33.8678 35.5866C33.9467 35.4833 34.0044 35.3653 34.0377 35.2396C34.0709 35.1139 34.0791 34.9829 34.0617 34.8541C34.0442 34.7252 34.0016 34.601 33.9362 34.4886L31.9297 31.0496C31.7989 30.8246 31.5847 30.6603 31.3337 30.5922C31.0825 30.524 30.8147 30.5575 30.5881 30.6855L28.4114 31.9222C27.3861 30.8151 26.0369 30.0608 24.5568 29.7673V27.3314C24.5568 27.069 24.4526 26.8174 24.267 26.6318C24.0814 26.4462 23.8298 26.342 23.5674 26.342H19.6099C19.3474 26.342 19.0958 26.4462 18.9103 26.6318C18.7247 26.8174 18.6204 27.069 18.6204 27.3314V29.7653C17.149 30.0649 15.8088 30.8195 14.7895 31.9222L12.605 30.6954C12.3784 30.5675 12.1106 30.5339 11.8594 30.602C11.6083 30.6702 11.3942 30.8346 11.2634 31.0595L9.2569 34.4886C9.19147 34.601 9.14876 34.7252 9.1314 34.8541C9.11396 34.9829 9.12215 35.1139 9.1554 35.2396C9.18864 35.3653 9.24639 35.4833 9.32523 35.5866C9.40408 35.69 9.50262 35.7769 9.61507 35.8422L11.7105 37.0591C11.3908 38.4726 11.3908 39.9396 11.7105 41.3531L9.58733 42.568C9.47453 42.633 9.3757 42.7196 9.29643 42.8228C9.21716 42.926 9.15907 43.0439 9.1254 43.1696C9.0918 43.2954 9.08326 43.4264 9.10041 43.5555C9.11756 43.6845 9.15991 43.8089 9.22521 43.9215L11.204 47.3606C11.3338 47.5855 11.5468 47.7503 11.797 47.8195C12.0473 47.8887 12.3147 47.8568 12.5417 47.7306L14.7816 46.486C15.8031 47.5909 17.146 48.3468 18.6204 48.6468V51.0767C18.6204 51.3392 18.7247 51.5908 18.9103 51.7764C19.0958 51.9619 19.3474 52.0662 19.6099 52.0662H23.5674C23.8298 52.0662 24.0814 51.9619 24.267 51.7764C24.4526 51.5908 24.5568 51.3392 24.5568 51.0767V48.6468C26.0282 48.3472 27.3684 47.5927 28.3877 46.49L30.6297 47.7346C30.8565 47.8608 31.124 47.8927 31.3742 47.8235C31.6245 47.7543 31.8375 47.5895 31.9673 47.3646L33.9461 43.9254C34.0113 43.8128 34.0538 43.6885 34.0709 43.5594C34.088 43.4305 34.0795 43.2993 34.0459 43.1736C34.0123 43.0478 33.9541 42.93 33.8748 42.8267C33.7956 42.7235 33.6967 42.6369 33.584 42.572L33.5899 42.568ZM21.5886 44.151C20.6102 44.151 19.6538 43.8609 18.8402 43.3173C18.0267 42.7737 17.3927 42.0011 17.0182 41.0972C16.6438 40.1933 16.5458 39.1986 16.7367 38.239C16.9276 37.2793 17.3988 36.3979 18.0906 35.7061C18.7824 35.0142 19.6639 34.5431 20.6235 34.3522C21.5832 34.1613 22.5778 34.2593 23.4817 34.6337C24.3857 35.0082 25.1582 35.6422 25.7018 36.4557C26.2454 37.2692 26.5356 38.2256 26.5356 39.2041C26.5356 40.5161 26.0143 41.7744 25.0867 42.7021C24.1589 43.6298 22.9006 44.151 21.5886 44.151Z" fill="#302CFF"/>
</g>
<defs>
<clipPath id="clip0_147_1415">
<rect x="0.333984" width="60" height="60" rx="15" fill="white"/>
</clipPath>
</defs>
</svg>
