<svg width="61" height="60" viewBox="0 0 61 60" fill="none" xmlns="http://www.w3.org/2000/svg">
<g clip-path="url(#clip0_147_1424)">
<path opacity="0.1" d="M60.667 0H0.666992V60H60.667V0Z" fill="#302CFF"/>
<path opacity="0.4" d="M43.207 18.3219C41.0803 15.7459 38.2104 13.889 34.9892 13.0046C31.768 12.1202 28.3523 12.2514 25.2084 13.3804C22.0644 14.5093 19.3456 16.5809 17.4228 19.3125C15.5 22.0441 14.467 25.3024 14.4648 28.6429V33.0746" stroke="#302CFF" stroke-width="5.00769" stroke-linecap="round" stroke-linejoin="round"/>
<path opacity="0.4" d="M19.625 42.4843C21.8552 44.8475 24.7434 46.4867 27.9159 47.1898C31.0882 47.8929 34.3986 47.6274 37.4185 46.4277C40.4382 45.2281 43.0284 43.1495 44.8534 40.4611C46.6786 37.7727 47.6545 34.5983 47.6551 31.349V28.3984" stroke="#302CFF" stroke-width="5.00769" stroke-linecap="round" stroke-linejoin="round"/>
<path d="M21.7826 27.7255C21.7733 27.9033 21.7146 28.0758 21.61 28.2256L14.7348 37.9654C14.5451 38.2329 14.2329 38.3858 13.9055 38.3687C13.578 38.3515 13.2835 38.1668 13.1229 37.881L7.30339 27.4758C7.13472 27.173 7.14272 26.8017 7.32742 26.5072C7.51092 26.2114 7.83935 26.0403 8.18586 26.0584L20.8805 26.7237C21.227 26.7419 21.5357 26.9464 21.6873 27.2599C21.7598 27.4075 21.7908 27.5682 21.7826 27.7255Z" fill="#302CFF"/>
<path d="M39.9312 34.0131C39.9374 33.8376 39.9923 33.6664 40.0929 33.5168L46.7083 23.789C46.8908 23.5218 47.1962 23.3655 47.5195 23.3768C47.8429 23.3881 48.1367 23.5653 48.3001 23.8445L54.2208 34.0101C54.3924 34.306 54.3909 34.6724 54.2138 34.9661C54.0379 35.2612 53.7168 35.4357 53.3746 35.4237L40.8384 34.9859C40.4962 34.974 40.1881 34.7775 40.0332 34.4709C39.9592 34.3265 39.9258 34.1685 39.9312 34.0131Z" fill="#302CFF"/>
</g>
<defs>
<clipPath id="clip0_147_1424">
<rect x="0.666992" width="60" height="60" rx="15" fill="white"/>
</clipPath>
</defs>
</svg>
