<svg width="60" height="60" viewBox="0 0 60 60" fill="none" xmlns="http://www.w3.org/2000/svg">
<g clip-path="url(#clip0_147_1411)">
<path opacity="0.1" d="M60 0H0V60H60V0Z" fill="#302CFF"/>
<path opacity="0.4" fill-rule="evenodd" clip-rule="evenodd" d="M44.4151 23.1521C45.3799 24.1169 45.3799 25.6812 44.4151 26.646L32.5887 38.4724L32.5881 38.4729C32.1513 38.9099 31.6327 39.2566 31.0619 39.4931C30.4908 39.7297 29.8787 39.8516 29.2605 39.8516C28.6424 39.8516 28.0303 39.7297 27.4593 39.4931C26.8882 39.2564 26.3694 38.9096 25.9324 38.4724L21.4395 33.9795L10.8963 44.5227C9.93143 45.4875 8.36713 45.4875 7.40233 44.5227C6.43751 43.5579 6.43751 41.9935 7.40233 41.0287L18.1114 30.3197L18.112 30.3191C18.5488 29.8822 19.0674 29.5355 19.6382 29.299C20.2093 29.0623 20.8214 28.9405 21.4395 28.9405C22.0576 28.9405 22.6698 29.0623 23.2408 29.299C23.8116 29.5355 24.3302 29.8822 24.7671 30.3191L24.7677 30.3197L29.2605 34.8126L40.9211 23.1521C41.886 22.1873 43.4502 22.1873 44.4151 23.1521Z" fill="#302CFF"/>
<path d="M35.0784 19.4538C35.2464 19.2971 35.4557 19.1895 35.6871 19.1442L50.8072 16.2647C51.2232 16.1864 51.6503 16.3243 51.939 16.634C52.2277 16.9436 52.3356 17.3792 52.2284 17.7888L48.3012 32.6712C48.1862 33.1037 47.8459 33.4412 47.4103 33.5491C46.9745 33.6593 46.5161 33.5237 46.2106 33.1961L35.0177 21.1931C34.7122 20.8655 34.6088 20.3987 34.7491 19.9717C34.8142 19.7696 34.9296 19.5925 35.0784 19.4538Z" fill="#302CFF"/>
</g>
<defs>
<clipPath id="clip0_147_1411">
<rect width="60" height="60" rx="15" fill="white"/>
</clipPath>
</defs>
</svg>
