<svg width="61" height="60" viewBox="0 0 61 60" fill="none" xmlns="http://www.w3.org/2000/svg">
<g clip-path="url(#clip0_147_1442)">
<path opacity="0.1" d="M60.334 0H0.333984V60H60.334V0Z" fill="#302CFF"/>
<path opacity="0.4" d="M46.0793 24.6828C46.0838 21.9289 45.3658 19.2219 43.9972 16.8321C42.6285 14.4423 40.657 12.4533 38.2794 11.0636C35.9018 9.67382 33.2013 8.93194 30.4474 8.91203C27.6935 8.89213 24.9825 9.59483 22.5851 10.9501C20.1877 12.3054 18.1876 14.2657 16.7846 16.6354C15.3815 19.0052 14.6246 21.7015 14.5892 24.4552C14.5538 27.2089 15.2414 29.9238 16.5831 32.3288C17.9248 34.7338 19.8739 36.7448 22.2358 38.1612V50.3259C22.2355 50.6821 22.341 51.0303 22.5388 51.3266C22.7366 51.6229 23.0179 51.8537 23.3471 51.99C23.6762 52.1262 24.0383 52.1617 24.3877 52.0919C24.737 52.0222 25.0578 51.8503 25.3094 51.5981L30.015 46.8905C30.0568 46.8485 30.1063 46.815 30.161 46.7922C30.2157 46.7694 30.2743 46.7576 30.3336 46.7576C30.3928 46.7576 30.4515 46.7694 30.5061 46.7922C30.5608 46.815 30.6105 46.8485 30.6521 46.8905L35.3578 51.5981C35.6094 51.8503 35.9301 52.0222 36.2795 52.0919C36.6288 52.1617 36.991 52.1262 37.3201 51.99C37.6492 51.8537 37.9305 51.6229 38.1284 51.3266C38.3262 51.0303 38.4316 50.6821 38.4314 50.3259V38.1612C40.7606 36.7652 42.6891 34.7903 44.0292 32.4285C45.3693 30.0667 46.0756 27.3983 46.0793 24.6828ZM30.3336 37.7293C27.7533 37.7293 25.2309 36.9641 23.0853 35.5306C20.9399 34.097 19.2677 32.0594 18.2802 29.6755C17.2928 27.2916 17.0344 24.6683 17.5378 22.1376C18.0412 19.6068 19.2838 17.2822 21.1084 15.4576C22.9329 13.633 25.2576 12.3905 27.7883 11.887C30.3191 11.3837 32.9423 11.642 35.3262 12.6295C37.7102 13.6169 39.7478 15.2891 41.1813 17.4346C42.6148 19.5801 43.38 22.1025 43.38 24.6828C43.3762 28.1418 42.0004 31.458 39.5546 33.9039C37.1087 36.3497 33.7926 37.7254 30.3336 37.7293Z" fill="#302CFF"/>
<path d="M30.334 41.5665C39.6382 41.5665 47.1808 34.024 47.1808 24.7198C47.1808 15.4156 39.6382 7.87305 30.334 7.87305C21.0298 7.87305 13.4873 15.4156 13.4873 24.7198C13.4873 34.024 21.0298 41.5665 30.334 41.5665Z" fill="#302CFF"/>
<path d="M37.4406 19.8005L28.1013 29.1399C27.8256 29.4155 27.3787 29.4155 27.103 29.1399L23.2295 25.2663" stroke="white" stroke-width="3.57692" stroke-miterlimit="10" stroke-linecap="round"/>
</g>
<defs>
<clipPath id="clip0_147_1442">
<rect x="0.333984" width="60" height="60" rx="15" fill="white"/>
</clipPath>
</defs>
</svg>
